<svg xmlns="http://www.w3.org/2000/svg" width="1066.533" height="54.077" viewBox="0 0 1066.533 54.077">
  <g id="Group_176" data-name="Group 176" transform="translate(-187 -7074)">
    <g id="Group_170" data-name="Group 170">
      <path id="Path_235" data-name="Path 235" d="M0,0H156.75l14.783,27.879-14.783,26.2H0Z" transform="translate(187 7074)" fill="#f70"/>
      <path id="Path_273" data-name="Path 273" d="M8-13.7A7.6,7.6,0,0,0,.384-6.08,7.614,7.614,0,0,0,8,1.536,7.624,7.624,0,0,0,15.616-6.08,7.614,7.614,0,0,0,8-13.7Zm0,.5a7.125,7.125,0,0,1,7.12,7.12A7.122,7.122,0,0,1,8,1.024,7.112,7.112,0,0,1,.88-6.08,7.125,7.125,0,0,1,8-13.2ZM8.72-.64V-11.52h-1.1a2.217,2.217,0,0,1-1.408.816v.592a3.228,3.228,0,0,0,1.424-.352V-.64ZM24.656-11.792v-1.2c.112-.192.128-.208.128-.256,0-.112-.1-.112-.272-.112l-1.248-.032a2.857,2.857,0,0,1,.144.88v.72h-6.32v.576h6.32v2.128h-5.2v.576H29.792v-.576H24.656v-2.128h6.288v-.576ZM16.96-6.72V-4.1h1.248V-6.144H29.68V-4.1h1.264V-6.72Zm.48,7.984c1.792-.3,5.3-1.056,5.3-4.992v-.864a1.02,1.02,0,0,0,.144-.336c0-.112-.112-.112-.224-.112l-1.408-.032a2.032,2.032,0,0,1,.192,1.024v.368c0,3.632-3.088,4.016-4.512,4.144ZM28.912.8C30.4.8,30.832.608,31.28-1.408a3.95,3.95,0,0,1-1.232-.7C29.824.24,29.264.24,28.352.24h-1.12c-1.008,0-1.024-.16-1.024-1.008V-4.64c.128-.208.128-.224.128-.272,0-.112-.144-.128-.224-.128l-1.248-.032a4.271,4.271,0,0,1,.144,1.008v3.28C25.008.448,25.424.8,26.7.8Zm4.512-13.52v3.5H46.56v-3.5Zm7.984.576v2.352H38.592v-2.352Zm-4,0v2.352H34.64v-2.352Zm8,0v2.352H42.544v-2.352Zm-10.8,4.032v6.64H45.424v-6.64Zm9.6,2.576V-4.1h-8.48v-1.44Zm0-2v1.424h-8.48V-7.536Zm0,4.016v1.472h-8.48V-3.52ZM33.216,1.312A17.38,17.38,0,0,0,37.44-.016c.576-.112.64-.128.64-.256,0-.048-.016-.064-.128-.176l-.928-.88A7.754,7.754,0,0,1,32.768.592ZM41.984-.1a15.785,15.785,0,0,0,4.448,1.472l.512-.7A9.418,9.418,0,0,1,42.752-1.1ZM60.576-8.352a3.5,3.5,0,0,1-.208,1.136A13.652,13.652,0,0,1,58.7-3.728a23.615,23.615,0,0,1-1.04-6.224h5.568v-.576h-5.6c-.032-1.056-.032-1.7-.032-2.208,0-.064.176-.368.176-.432,0-.144-.032-.144-.3-.144l-1.312-.016a11.279,11.279,0,0,1,.256,2.8h-6.3V-5.76c0,2.464-.176,5.056-1.76,6.736l.592.32a9.476,9.476,0,0,0,2.464-6.768v-1.3h2.64a18.623,18.623,0,0,1-.224,3.648c-.144.48-.3.736-.848.736a6.187,6.187,0,0,1-1.312-.192l.288.752h1.36c.816,0,1.472,0,1.76-1.344a25.55,25.55,0,0,0,.3-4.176H51.408V-9.952h5.04A25.4,25.4,0,0,0,57.84-2.576,9.339,9.339,0,0,1,53.376.512l.5.544a9.335,9.335,0,0,0,4.4-2.736c.672,1.248,1.9,2.96,3.008,2.96.544,0,1.28-.208,2.256-2.8a2.491,2.491,0,0,1-1.024-.848c-.272.944-.688,2.24-1.28,2.24-.432,0-1.36-.992-2.1-2.544A21.88,21.88,0,0,0,61.808-7.2c.352-.256.4-.288.4-.368,0-.112-.064-.128-.256-.208Zm1.36-3.344a13.661,13.661,0,0,0-2.64-1.632l-.368.512a13.806,13.806,0,0,1,2.192,2ZM72.624-10.48v-2.512a1.381,1.381,0,0,0,.128-.384c0-.1-.08-.112-.256-.128l-1.344-.064a3.28,3.28,0,0,1,.144.9v2.192H65.488v.56H78.512v-.56Zm.432,10.4A62.8,62.8,0,0,0,76.08-7.92c.224-.16.272-.192.272-.3s-.064-.128-.288-.192l-1.376-.368a39.455,39.455,0,0,1-2.4,8.7H64.7V.5h14.56V-.08ZM67.632-7.936a20.37,20.37,0,0,1,1.632,6.752l1.424-.576a22.692,22.692,0,0,0-2.448-6.5Z" transform="translate(233 7106)" fill="#fff"/>
    </g>
    <g id="Group_172" data-name="Group 172">
      <path id="Path_237" data-name="Path 237" d="M-15,0H156.75l14.783,27.879-14.783,26.2H-15L0,27.831Z" transform="translate(545 7074)" fill="#cf6100"/>
      <path id="Path_275" data-name="Path 275" d="M7-11.984A6.653,6.653,0,0,0,.336-5.32,6.662,6.662,0,0,0,7,1.344,6.671,6.671,0,0,0,13.664-5.32,6.662,6.662,0,0,0,7-11.984Zm0,.434a6.235,6.235,0,0,1,6.23,6.23A6.232,6.232,0,0,1,7,.9,6.223,6.223,0,0,1,.77-5.32,6.235,6.235,0,0,1,7-11.55ZM6.244-5.936v.49h.812c.686,0,1.554.168,1.554,2,0,1.652-.392,2.6-1.568,2.6-1.666,0-1.778-2.1-1.806-2.66l-.952.672C4.76-.77,5.908-.364,6.986-.364a2.5,2.5,0,0,0,2.66-2.828c0-2.24-1.372-2.436-1.876-2.52a1.9,1.9,0,0,0,1.638-2.17,2.15,2.15,0,0,0-2.2-2.394A2.379,2.379,0,0,0,4.844-8.694l.812.728c.084-.49.448-1.82,1.526-1.82S8.358-8.512,8.358-7.98c0,1.61-.434,2.044-1.456,2.044ZM24.122-10.7c0-.07.238-.294.238-.364s-.056-.126-.294-.126l-1.078-.028c.028.322.07.854.07,1.176v2H19.236v-2.688c0-.07.252-.294.252-.35,0-.112-.224-.126-.28-.126l-1.176-.056a7.28,7.28,0,0,1,.14,1.5v1.722h-.91c-.336,0-1.344-.042-2.156-.126v.882c.91-.084,1.96-.112,2.156-.112h.91v1.064c0,.63-.056,1.638-.154,2.674h1.246c-.014-.826-.028-1.75-.028-2.59V-7.392h3.822a24.66,24.66,0,0,1-.252,3.738C22.33-.7,19.8-.434,18.592-.308l.294.644c4.466-.938,5.18-2.156,5.236-7.728h.5c.56,0,1.624.07,2.17.112v-.882c-.588.056-1.666.126-2.17.126h-.5ZM36.26.658c-.042-.392-.1-1.4-.1-1.82V-7.616a20.665,20.665,0,0,0,3.01-2.8,1.9,1.9,0,0,1,.378-.2.111.111,0,0,0,.07-.112c0-.07-.112-.154-.154-.182l-.966-.63A15.19,15.19,0,0,1,29.05-5.11l.238.6A17.308,17.308,0,0,0,35.154-6.9v5.8c0,.294-.028.994-.07,1.764ZM47.11-2.576c0,1.246-.028,2.1-.07,2.828h1.19c-.042-1.162-.042-2.408-.042-2.828V-6.37a10.08,10.08,0,0,1,4.564,2.856l.924-.826a14.855,14.855,0,0,0-5.488-2.646v-3.262a.687.687,0,0,1,.126-.434.312.312,0,0,0,.07-.154c0-.084-.14-.126-.252-.14l-1.106-.1a11.357,11.357,0,0,1,.084,1.54ZM59.934-7.7h1.442v-.5H59.934v-2.324c.2-.028,1.232-.224,1.3-.224s.336.028.392.028.168,0,.168-.07-.126-.168-.168-.21l-.854-.77c-.994.9-4.06,1.022-4.13,1.036l.336.476c.336-.014.84-.028,1.9-.14v2.2h-2.24v.5h2.114a9.2,9.2,0,0,1-2.282,5.362l.378.308a7.523,7.523,0,0,0,2.03-2.87V1.036h1.05V-5.488A8.686,8.686,0,0,0,61.1-3.976l.378-.42a6.962,6.962,0,0,1-1.54-3.094Zm7.322-2.436a5.849,5.849,0,0,1-1.848,2.212,11.954,11.954,0,0,0-1.792-1.33l-.364.378a6.021,6.021,0,0,1,1.288,1.6,13.259,13.259,0,0,1-3.108,1.526l.532.476A18.446,18.446,0,0,0,66-7.392a11.375,11.375,0,0,0,3.192-3.248H64.764c.2-.182.266-.238.434-.406.336-.14.476-.2.476-.336,0-.084-.084-.112-.252-.168l-1.12-.406a1.9,1.9,0,0,1-.308.714,9.8,9.8,0,0,1-2.758,2.366l.5.294a15.77,15.77,0,0,0,2.408-1.554ZM65.422-4.788a15.542,15.542,0,0,0,1.148-1.26c.238-.084.35-.126.35-.224s-.14-.154-.21-.182l-1.036-.518c-.2.868-1.736,3.164-4.634,4.578L61.516-2A12.324,12.324,0,0,0,64.89-4.284h3.276A5.552,5.552,0,0,1,66.332-1.5a9.408,9.408,0,0,0-2.1-1.75l-.42.42a7.6,7.6,0,0,1,1.568,2A12.107,12.107,0,0,1,60.7.476l.518.56C66.094.266,68.4-1.33,69.706-4.788Zm5.418.9A12.445,12.445,0,0,0,72.828-5.5V1.05h1.036v-7.6c.392-.42.742-.8,1.232-1.386.168-.1.28-.168.28-.28,0-.084-.056-.126-.168-.2l-.924-.56c-.322,1.05-2.31,3.416-3.906,4.7ZM73.864-11.9A10.407,10.407,0,0,1,70.42-8.008l.42.392a16.12,16.12,0,0,0,3.85-3.206c.322-.14.364-.154.364-.266,0-.056-.028-.1-.154-.182Zm6.944,5.53h2.576v-.5H74.97v.5h4.718V-.224c0,.462,0,.77-.63.77a6.09,6.09,0,0,1-1.6-.21L77.7.994h1.708c1.372,0,1.4-.406,1.4-1.176Zm2-4.452H75.726v.5H82.81Zm2.492-.294V1.064h1.064V-6.692h3.99v-4.424ZM86.366-9.2v-1.428h2.94V-9.2Zm2.94.518V-7.2h-2.94V-8.68Zm2.324-2.436v4.424h3.99V-.14c0,.378,0,.672-.448.672a8.23,8.23,0,0,1-1.288-.14l.252.644h1.288c.882,0,1.26-.224,1.26-1.12V-11.116ZM92.666-9.2v-1.428H95.62V-9.2Zm2.954.518V-7.2H92.666V-8.68ZM92.988-5.138h1.666v-.518h-7.2v.518h1.82v1.946h-2.2v.5h2.17A3.506,3.506,0,0,1,87.388.364l.378.364c2.24-1.26,2.422-2.45,2.534-3.416h1.638V.728h1.05V-2.688h2v-.5h-2Zm-1.05,1.946h-1.6c.014-.21.014-.28.014-.756v-1.19h1.582Zm19.7-2.912a11.718,11.718,0,0,0-2.772-3.822l-.518.546a9.108,9.108,0,0,1,1.414,1.848c-1.106.168-1.414.2-4.158.42,1.064-1.6,1.19-1.82,2.38-3.906.056-.056.238-.224.238-.308s-.126-.112-.238-.154l-1.162-.378a15.364,15.364,0,0,1-2.03,4.788,5.331,5.331,0,0,1-1.274-.014c.028-.462.028-1.176.028-1.778h-2.128c.126-.77.322-2.058.35-2.31a.745.745,0,0,0,.154-.35c0-.1-.028-.112-.224-.126l-1.106-.112a4.745,4.745,0,0,1,.028.518,14.568,14.568,0,0,1-.266,2.38H98.63v.5h1.638A25.037,25.037,0,0,1,98.63-3a7.513,7.513,0,0,1,2.576,1.4A5.41,5.41,0,0,1,98.616.56l.518.588a7.5,7.5,0,0,0,2.73-2.184,6.786,6.786,0,0,1,1.2,1.456l.826-.9a6.184,6.184,0,0,0-1.512-1.358,11.717,11.717,0,0,0,1.134-5.236l.322.84c.084.224.126.266.2.266.1,0,.14-.1.266-.336.812-.1,4.858-.532,5.768-.672a14.378,14.378,0,0,1,.7,1.638Zm-9.184-2.254c-.028,3.066-.2,4.746-.84,6.048a15.347,15.347,0,0,0-1.764-.868,28.024,28.024,0,0,0,1.484-5.18Zm8.19,9.422V-4.914H104.3V1.064h1.064V.378h4.186v.686ZM109.55-.126h-4.186V-4.41h4.186Zm15.918.392A10.075,10.075,0,0,1,122.3-3.822a28.474,28.474,0,0,0,2.31-1.792c.154,0,.434-.028.434-.2,0-.056-.014-.07-.14-.14l-.966-.574a12.485,12.485,0,0,1-1.89,2.03,11.615,11.615,0,0,1-.616-3.626h3.878v-.5h-4.088V-11.13c.154-.322.168-.364.168-.406,0-.084-.056-.084-.168-.084l-1.19-.042a6.3,6.3,0,0,1,.084.98v2.058H116.2v.5h3.57a11.663,11.663,0,0,1-4.214,4.34l.49.42a14.065,14.065,0,0,0,2.1-1.442V-.546a13.159,13.159,0,0,1-2.044.49l.434.84c.028.056.112.168.168.168.084,0,.14-.112.252-.322.756-.28,4.144-1.512,4.816-1.778v-.63a25.173,25.173,0,0,1-2.534.9V-5.768a14.269,14.269,0,0,0,1.232-1.288A12.068,12.068,0,0,0,124.978.728ZM115.22-8.582a25.105,25.105,0,0,0,1.232-2.324c.238-.168.28-.21.28-.322,0-.084-.084-.126-.154-.154l-1.148-.42a15.134,15.134,0,0,1-3.276,6.314l.616.2A14.922,14.922,0,0,0,114.1-6.9V1.106h1.12Zm20.146-.294a14.6,14.6,0,0,0,.8-1.708h3.164v-.49h-6.566v.49h2.212a16.758,16.758,0,0,1-.434,1.708h-1.19v7.07h5.362v-7.07Zm2.31,2.688v1.666H134.4V-6.188Zm-3.276-.5V-8.358h3.276v1.666Zm3.276,2.674V-2.31H134.4V-4.018ZM132.762-1.61a6.748,6.748,0,0,1-2.044-2.744h1.694V-8.26h-2.128V-9.716h2.394v-.5h-2.394v-1.036c.112-.084.238-.182.238-.294,0-.084-.056-.084-.308-.112l-1.036-.1a2.914,2.914,0,0,1,.168.924v.616h-2.73v.5h2.73V-8.26h-2.114v3.906h1.722a10.275,10.275,0,0,1-2.716,3.962l.476.378a10.52,10.52,0,0,0,2.632-3.332V1.036h.938V-3.3a10.949,10.949,0,0,0,2.128,2.142Zm-1.316-6.146v2.9h-1.162v-2.9Zm-3.262,2.9v-2.9h1.162v2.9Zm4.424,5.894a9.851,9.851,0,0,0,2.562-1.47c.392-.1.42-.1.42-.2,0-.028-.014-.07-.154-.182l-.868-.7a2.715,2.715,0,0,1-.714.9,9.638,9.638,0,0,1-1.666,1.19Zm3.766-1.722a11.034,11.034,0,0,0,2.9,1.792l.322-.49a7.541,7.541,0,0,1-2.436-2.044Z" transform="translate(553 7105)" fill="#fff"/>
    </g>
    <g id="Group_174" data-name="Group 174">
      <path id="Path_238" data-name="Path 238" d="M-15,0H156.75l14.783,27.879-14.783,26.2H-15L0,27.831Z" transform="translate(903 7074)" fill="#843e00"/>
      <path id="Path_277" data-name="Path 277" d="M7-11.984A6.653,6.653,0,0,0,.336-5.32,6.662,6.662,0,0,0,7,1.344,6.671,6.671,0,0,0,13.664-5.32,6.662,6.662,0,0,0,7-11.984Zm0,.434a6.235,6.235,0,0,1,6.23,6.23A6.232,6.232,0,0,1,7,.9,6.223,6.223,0,0,1,.77-5.32,6.235,6.235,0,0,1,7-11.55ZM9.31-9.492v-.49H4.816l-.1,5.208.714.126c.07-.336.378-1.666,1.722-1.666,1.19,0,1.484,1.218,1.484,2.618,0,1.68-.322,2.94-1.61,2.94S5.32-2,5.25-3.08l-.98.518c.5,1.442,1.176,2.31,2.7,2.31,2.492,0,2.7-2.408,2.7-3.332,0-.462,0-3.29-2.422-3.29a2.018,2.018,0,0,0-1.6.742l.07-3.36Zm14.812-1.2c0-.07.238-.294.238-.364s-.056-.126-.294-.126l-1.078-.028c.028.322.07.854.07,1.176v2H19.236v-2.688c0-.07.252-.294.252-.35,0-.112-.224-.126-.28-.126l-1.176-.056a7.28,7.28,0,0,1,.14,1.5v1.722h-.91c-.336,0-1.344-.042-2.156-.126v.882c.91-.084,1.96-.112,2.156-.112h.91v1.064c0,.63-.056,1.638-.154,2.674h1.246c-.014-.826-.028-1.75-.028-2.59V-7.392h3.822a24.66,24.66,0,0,1-.252,3.738C22.33-.7,19.8-.434,18.592-.308l.294.644c4.466-.938,5.18-2.156,5.236-7.728h.5c.56,0,1.624.07,2.17.112v-.882c-.588.056-1.666.126-2.17.126h-.5ZM36.26.658c-.042-.392-.1-1.4-.1-1.82V-7.616a20.665,20.665,0,0,0,3.01-2.8,1.9,1.9,0,0,1,.378-.2.111.111,0,0,0,.07-.112c0-.07-.112-.154-.154-.182l-.966-.63A15.19,15.19,0,0,1,29.05-5.11l.238.6A17.308,17.308,0,0,0,35.154-6.9v5.8c0,.294-.028.994-.07,1.764ZM47.11-2.576c0,1.246-.028,2.1-.07,2.828h1.19c-.042-1.162-.042-2.408-.042-2.828V-6.37a10.08,10.08,0,0,1,4.564,2.856l.924-.826a14.855,14.855,0,0,0-5.488-2.646v-3.262a.687.687,0,0,1,.126-.434.312.312,0,0,0,.07-.154c0-.084-.14-.126-.252-.14l-1.106-.1a11.357,11.357,0,0,1,.084,1.54ZM59.934-7.7h1.442v-.5H59.934v-2.324c.2-.028,1.232-.224,1.3-.224s.336.028.392.028.168,0,.168-.07-.126-.168-.168-.21l-.854-.77c-.994.9-4.06,1.022-4.13,1.036l.336.476c.336-.014.84-.028,1.9-.14v2.2h-2.24v.5h2.114a9.2,9.2,0,0,1-2.282,5.362l.378.308a7.523,7.523,0,0,0,2.03-2.87V1.036h1.05V-5.488A8.686,8.686,0,0,0,61.1-3.976l.378-.42a6.962,6.962,0,0,1-1.54-3.094Zm7.322-2.436a5.849,5.849,0,0,1-1.848,2.212,11.954,11.954,0,0,0-1.792-1.33l-.364.378a6.021,6.021,0,0,1,1.288,1.6,13.259,13.259,0,0,1-3.108,1.526l.532.476A18.446,18.446,0,0,0,66-7.392a11.375,11.375,0,0,0,3.192-3.248H64.764c.2-.182.266-.238.434-.406.336-.14.476-.2.476-.336,0-.084-.084-.112-.252-.168l-1.12-.406a1.9,1.9,0,0,1-.308.714,9.8,9.8,0,0,1-2.758,2.366l.5.294a15.77,15.77,0,0,0,2.408-1.554ZM65.422-4.788a15.542,15.542,0,0,0,1.148-1.26c.238-.084.35-.126.35-.224s-.14-.154-.21-.182l-1.036-.518c-.2.868-1.736,3.164-4.634,4.578L61.516-2A12.324,12.324,0,0,0,64.89-4.284h3.276A5.552,5.552,0,0,1,66.332-1.5a9.408,9.408,0,0,0-2.1-1.75l-.42.42a7.6,7.6,0,0,1,1.568,2A12.107,12.107,0,0,1,60.7.476l.518.56C66.094.266,68.4-1.33,69.706-4.788Zm5.418.9A12.445,12.445,0,0,0,72.828-5.5V1.05h1.036v-7.6c.392-.42.742-.8,1.232-1.386.168-.1.28-.168.28-.28,0-.084-.056-.126-.168-.2l-.924-.56c-.322,1.05-2.31,3.416-3.906,4.7ZM73.864-11.9A10.407,10.407,0,0,1,70.42-8.008l.42.392a16.12,16.12,0,0,0,3.85-3.206c.322-.14.364-.154.364-.266,0-.056-.028-.1-.154-.182Zm6.944,5.53h2.576v-.5H74.97v.5h4.718V-.224c0,.462,0,.77-.63.77a6.09,6.09,0,0,1-1.6-.21L77.7.994h1.708c1.372,0,1.4-.406,1.4-1.176Zm2-4.452H75.726v.5H82.81Zm13.426.672v-1.19a.61.61,0,0,0,.084-.238c0-.084-.042-.1-.112-.1l-1.19-.07a5.891,5.891,0,0,1,.084.882v.714H89.6v3.318h1.134V-9.646h9.9v2.814h1.092V-10.15Zm1.2,6.034H102v-.5H89.292v.5h4.214c-.084,2.562-.868,4.34-4.494,4.634l.378.546c3.948-.336,5.138-2.45,5.236-5.18h1.722V-.322c0,1.092.49,1.092,1.4,1.092h2.366c.84,0,1.6,0,2.1-2.17a3.2,3.2,0,0,1-1.022-.574c-.35,2.24-.742,2.24-1.526,2.24h-1.6c-.462,0-.63,0-.63-.462ZM91.812-7.49v.5h7.77v-.5Zm11.494-3.626v.518h10.5a26.075,26.075,0,0,1-3.556,2.926l-1.176-.182v7.6c0,.518,0,.7-.6.7A11.2,11.2,0,0,1,106.806.28l.2.742h1.848c1.064,0,1.3-.126,1.3-1.3V-6.538c4.466-3.192,4.97-3.556,5.628-4.06v-.518ZM130.256.42a7.663,7.663,0,0,1-2.072-1.82A10.857,10.857,0,0,0,129.7-5.95H125.37V-10.6h3.024c-.056,3.15-.336,3.15-.8,3.15a6.334,6.334,0,0,1-1.246-.182l.28.672h1.092c1.176,0,1.792,0,1.75-4.144h-5.18V1.078h1.078V-5.46h3.108a9.629,9.629,0,0,1-.77,3.346,10.949,10.949,0,0,1-.9-2.59l-1.092.224a9.809,9.809,0,0,0,1.568,3.108A6.307,6.307,0,0,1,125.4.462l.476.392a7.734,7.734,0,0,0,1.89-1.666A9.1,9.1,0,0,0,129.78.826Zm-9.212-10.486V-11.1c.168-.322.182-.35.182-.434s-.07-.1-.28-.112l-1.106-.07a4.479,4.479,0,0,1,.084.882v.77h-2.338v.5h2.338v1.988h-2.66v.5h6.4v-.5h-2.618V-9.562H123.4v-.5Zm0,6.132h2.618v-.5h-6.4v.5h2.66V-1.96h-2.548v.5h2.548V1.078h1.12V-1.456H123.4v-.5h-2.352Zm-3.052-2.772a10.512,10.512,0,0,1,.91,2.226l.938-.546a14.211,14.211,0,0,0-1.4-1.932Zm4.144-.252a5.753,5.753,0,0,1-.784,2.142l.476.238a16.538,16.538,0,0,0,1.19-1.414c.126-.084.322-.21.322-.336,0-.056,0-.07-.21-.168Zm12.04-2.618c.2-.28.35-.5.7-1.036.084-.056.294-.168.294-.322,0-.056-.07-.1-.182-.14l-1.316-.56a12.281,12.281,0,0,1-2.114,4.326l.616.308a17.57,17.57,0,0,0,1.652-2.086h3.262v2.758H131.25v.5H144v-.5h-5.8V-9.086h4.816v-.49h-4.816v-1.6c.112-.168.154-.238.154-.308,0-.154-.1-.154-.266-.168L137-11.732a4.266,4.266,0,0,1,.084.826v1.33Zm7,10.038v.616h1.162v-5.04H132.86v5.04h1.19V.462Zm-7.126-.5V-3.458h7.126V-.042Z" transform="translate(911 7105)" fill="#fff"/>
    </g>
    <g id="Group_171" data-name="Group 171">
      <path id="Path_236" data-name="Path 236" d="M-15,0H156.75l14.783,27.879-14.783,26.2H-15L0,27.831Z" transform="translate(366 7074)" fill="#e56b00"/>
      <path id="Path_274" data-name="Path 274" d="M8-13.7A7.6,7.6,0,0,0,.384-6.08,7.614,7.614,0,0,0,8,1.536,7.624,7.624,0,0,0,15.616-6.08,7.614,7.614,0,0,0,8-13.7Zm0,.5a7.125,7.125,0,0,1,7.12,7.12A7.122,7.122,0,0,1,8,1.024,7.112,7.112,0,0,1,.88-6.08,7.125,7.125,0,0,1,8-13.2ZM6.176-7.872c.032-1.184.08-3.424,2-3.424,1.376,0,1.744,1.2,1.744,2.464,0,1.7-.464,2.176-1.872,3.3-1.424,1.12-2.784,2.208-3.12,4.8H11.04V-1.3H6.352A4.856,4.856,0,0,1,8.528-4.928C10.4-6.24,11.12-6.736,11.12-8.688c0-1.872-.816-3.168-2.864-3.168-2.864,0-3.152,2.48-3.312,3.76ZM30.448-1.12a5.9,5.9,0,0,1-3.776-4.192h4.192v-.576H26.208a17.428,17.428,0,0,0,.192-2.9h3.728V-9.36H21.344v.576h3.792a21.321,21.321,0,0,1-.144,2.9H20.48v.576H24.9A5.782,5.782,0,0,1,21.1-1.088l.48.56A7.02,7.02,0,0,0,25.728-4.32,7.293,7.293,0,0,0,29.952-.56Zm-10.08-9.024a20.028,20.028,0,0,0-2.928-3.2l-.5.48A11.484,11.484,0,0,1,19.28-9.12Zm-3.7,3.68v.576H18.5v4.96A9.962,9.962,0,0,1,16.48.56l.528.7c.048.064.1.128.192.128s.112-.032.24-.352C18.1.464,18.464.1,19.184-.64,19.9.432,20.7.928,22.816.928h8.432l.3-.8c-.736.064-2.976.224-4.208.224h-3.92c-1.76,0-3.648-.1-3.648-2.656v-4.16Zm8.336-4.272a13.464,13.464,0,0,0-2.512-2.72l-.544.448A9.213,9.213,0,0,1,23.92-9.952Zm3.408-2.816A13.647,13.647,0,0,1,26.4-10.48l.576.4a28.055,28.055,0,0,0,2.3-2.24c.1-.016.352-.08.352-.192,0-.1-.08-.16-.176-.24ZM40.592-7.488h2.864v-.56H36.512v.56h2.832v2.4h-4.8v.576h4.8v4.48H32.976V.544H46.864V-.032H40.592v-4.48h4.784v-.576H40.592Zm-1.344-5.888a12.694,12.694,0,0,1-6.96,6.352l.512.464a14.574,14.574,0,0,0,7.136-5.248A16.282,16.282,0,0,0,47.008-6.5l.464-.576a12.048,12.048,0,0,1-6.72-6.3ZM38.4-1.12a13.955,13.955,0,0,0-2.464-2.656l-.528.48A14.506,14.506,0,0,1,37.3-.4Zm4.816-2.768A10.2,10.2,0,0,1,41.344-.816l.608.432a23.989,23.989,0,0,0,2.24-2.352c.256-.128.368-.192.368-.272s-.128-.144-.176-.176Z" transform="translate(420 7106)" fill="#fff"/>
    </g>
    <g id="Group_173" data-name="Group 173">
      <path id="Path_239" data-name="Path 239" d="M-15,0H156.75l14.783,27.879-14.783,26.2H-15L0,27.831Z" transform="translate(724 7074)" fill="#a84e00"/>
      <path id="Path_276" data-name="Path 276" d="M8-13.7A7.6,7.6,0,0,0,.384-6.08,7.614,7.614,0,0,0,8,1.536,7.624,7.624,0,0,0,15.616-6.08,7.614,7.614,0,0,0,8-13.7Zm0,.5a7.125,7.125,0,0,1,7.12,7.12A7.122,7.122,0,0,1,8,1.024,7.112,7.112,0,0,1,.88-6.08,7.125,7.125,0,0,1,8-13.2Zm.288,1.68L4.464-3.84v.528H8.5V-.64h1.04V-3.312H10.72v-.56H9.536V-11.52ZM8.5-3.872H5.12L8.5-10.624Zm19.072-8.352c0-.08.272-.336.272-.416s-.064-.144-.336-.144l-1.232-.032c.032.368.08.976.08,1.344v2.288H21.984v-3.072c0-.08.288-.336.288-.4,0-.128-.256-.144-.32-.144l-1.344-.064a8.32,8.32,0,0,1,.16,1.712v1.968h-1.04c-.384,0-1.536-.048-2.464-.144V-8.32c1.04-.1,2.24-.128,2.464-.128h1.04v1.216c0,.72-.064,1.872-.176,3.056h1.424c-.016-.944-.032-2-.032-2.96V-8.448h4.368a28.183,28.183,0,0,1-.288,4.272C25.52-.8,22.624-.5,21.248-.352l.336.736c5.1-1.072,5.92-2.464,5.984-8.832h.576c.64,0,1.856.08,2.48.128V-9.328c-.672.064-1.9.144-2.48.144h-.576ZM41.44.752c-.048-.448-.112-1.6-.112-2.08V-8.7a23.618,23.618,0,0,0,3.44-3.2,2.175,2.175,0,0,1,.432-.224.127.127,0,0,0,.08-.128c0-.08-.128-.176-.176-.208l-1.1-.72A17.36,17.36,0,0,1,33.2-5.84l.272.688a19.781,19.781,0,0,0,6.7-2.736v6.624c0,.336-.032,1.136-.08,2.016Zm12.4-3.7c0,1.424-.032,2.4-.08,3.232h1.36c-.048-1.328-.048-2.752-.048-3.232V-7.28a11.52,11.52,0,0,1,5.216,3.264l1.056-.944a16.977,16.977,0,0,0-6.272-3.024v-3.728a.785.785,0,0,1,.144-.5.357.357,0,0,0,.08-.176c0-.1-.16-.144-.288-.16l-1.264-.112a12.979,12.979,0,0,1,.1,1.76ZM68.5-8.8h1.648v-.576H68.5v-2.656c.224-.032,1.408-.256,1.488-.256.064,0,.384.032.448.032.048,0,.192,0,.192-.08s-.144-.192-.192-.24l-.976-.88c-1.136,1.024-4.64,1.168-4.72,1.184l.384.544c.384-.016.96-.032,2.176-.16v2.512h-2.56V-8.8h2.416a10.508,10.508,0,0,1-2.608,6.128l.432.352A8.6,8.6,0,0,0,67.3-5.6V1.184h1.2V-6.272a9.927,9.927,0,0,0,1.328,1.728l.432-.48A7.957,7.957,0,0,1,68.5-8.56Zm8.368-2.784a6.684,6.684,0,0,1-2.112,2.528,13.661,13.661,0,0,0-2.048-1.52l-.416.432A6.882,6.882,0,0,1,73.76-8.32a15.153,15.153,0,0,1-3.552,1.744l.608.544a21.081,21.081,0,0,0,4.608-2.416,13,13,0,0,0,3.648-3.712H74.016c.224-.208.3-.272.5-.464.384-.16.544-.224.544-.384,0-.1-.1-.128-.288-.192l-1.28-.464a2.166,2.166,0,0,1-.352.816,11.2,11.2,0,0,1-3.152,2.7l.576.336a18.022,18.022,0,0,0,2.752-1.776Zm-2.1,6.112a17.761,17.761,0,0,0,1.312-1.44c.272-.1.4-.144.4-.256,0-.1-.16-.176-.24-.208l-1.184-.592c-.224.992-1.984,3.616-5.3,5.232l.544.448A14.085,14.085,0,0,0,74.16-4.9H77.9a6.345,6.345,0,0,1-2.1,3.184,10.752,10.752,0,0,0-2.4-2l-.48.48A8.681,8.681,0,0,1,74.72-.944,13.836,13.836,0,0,1,69.376.544l.592.64c5.568-.88,8.208-2.7,9.7-6.656ZM80.96-4.448a14.223,14.223,0,0,0,2.272-1.84V1.2h1.184V-7.488c.448-.48.848-.912,1.408-1.584.192-.112.32-.192.32-.32,0-.1-.064-.144-.192-.224l-1.056-.64c-.368,1.2-2.64,3.9-4.464,5.376ZM84.416-13.6A11.894,11.894,0,0,1,80.48-9.152l.48.448a18.423,18.423,0,0,0,4.4-3.664c.368-.16.416-.176.416-.3,0-.064-.032-.112-.176-.208Zm7.936,6.32H95.3v-.576H85.68v.576h5.392V-.256c0,.528,0,.88-.72.88a6.96,6.96,0,0,1-1.824-.24l.272.752h1.952c1.568,0,1.6-.464,1.6-1.344Zm2.288-5.088h-8.1v.576h8.1Z" transform="translate(754 7106)" fill="#fff"/>
    </g>
    <g id="Group_175" data-name="Group 175">
      <path id="Path_240" data-name="Path 240" d="M-15,0H156.75l14.783,27.879-14.783,26.2H-15L0,27.831Z" transform="translate(1082 7074)" fill="#482200"/>
      <path id="Path_278" data-name="Path 278" d="M8-13.7A7.6,7.6,0,0,0,.384-6.08,7.614,7.614,0,0,0,8,1.536,7.624,7.624,0,0,0,15.616-6.08,7.614,7.614,0,0,0,8-13.7Zm0,.5a7.125,7.125,0,0,1,7.12,7.12A7.122,7.122,0,0,1,8,1.024,7.112,7.112,0,0,1,.88-6.08,7.125,7.125,0,0,1,8-13.2Zm3.008,3.184a2.988,2.988,0,0,0-2.816-1.728c-1.888,0-3.264,1.392-3.264,5.92,0,4.16,1.328,5.408,3.136,5.408,2.064,0,3.008-1.68,3.008-3.728,0-2.3-1.168-3.536-2.816-3.536A2.439,2.439,0,0,0,6.064-6.416c.176-3.952.832-4.768,2.064-4.768,1.488,0,1.712,1.344,1.824,1.968Zm-4.96,4.64A2.439,2.439,0,0,1,8.16-7.088c1.408,0,1.728,1.424,1.728,2.9,0,2.224-.592,3.28-1.776,3.28C6.192-.912,6.048-3.488,6.048-5.376Zm24.4,4.256a5.9,5.9,0,0,1-3.776-4.192h4.192v-.576H26.208a17.428,17.428,0,0,0,.192-2.9h3.728V-9.36H21.344v.576h3.792a21.321,21.321,0,0,1-.144,2.9H20.48v.576H24.9A5.782,5.782,0,0,1,21.1-1.088l.48.56A7.02,7.02,0,0,0,25.728-4.32,7.293,7.293,0,0,0,29.952-.56Zm-10.08-9.024a20.028,20.028,0,0,0-2.928-3.2l-.5.48A11.484,11.484,0,0,1,19.28-9.12Zm-3.7,3.68v.576H18.5v4.96A9.962,9.962,0,0,1,16.48.56l.528.7c.048.064.1.128.192.128s.112-.032.24-.352C18.1.464,18.464.1,19.184-.64,19.9.432,20.7.928,22.816.928h8.432l.3-.8c-.736.064-2.976.224-4.208.224h-3.92c-1.76,0-3.648-.1-3.648-2.656v-4.16Zm8.336-4.272a13.464,13.464,0,0,0-2.512-2.72l-.544.448A9.213,9.213,0,0,1,23.92-9.952Zm3.408-2.816A13.647,13.647,0,0,1,26.4-10.48l.576.4a28.055,28.055,0,0,0,2.3-2.24c.1-.016.352-.08.352-.192,0-.1-.08-.16-.176-.24ZM40.592-7.488h2.864v-.56H36.512v.56h2.832v2.4h-4.8v.576h4.8v4.48H32.976V.544H46.864V-.032H40.592v-4.48h4.784v-.576H40.592Zm-1.344-5.888a12.694,12.694,0,0,1-6.96,6.352l.512.464a14.574,14.574,0,0,0,7.136-5.248A16.282,16.282,0,0,0,47.008-6.5l.464-.576a12.048,12.048,0,0,1-6.72-6.3ZM38.4-1.12a13.955,13.955,0,0,0-2.464-2.656l-.528.48A14.506,14.506,0,0,1,37.3-.4Zm4.816-2.768A10.2,10.2,0,0,1,41.344-.816l.608.432a23.989,23.989,0,0,0,2.24-2.352c.256-.128.368-.192.368-.272s-.128-.144-.176-.176Z" transform="translate(1136 7106)" fill="#fff"/>
    </g>
  </g>
</svg>
