<svg xmlns="http://www.w3.org/2000/svg" xmlns:xlink="http://www.w3.org/1999/xlink" width="201.982" height="147.511" viewBox="0 0 201.982 147.511">
  <defs>
    <linearGradient id="linear-gradient" x1="0.086" y1="0.265" x2="0.92" y2="0.724" gradientUnits="objectBoundingBox">
      <stop offset="0" stop-color="#a67b39"/>
      <stop offset="0.055" stop-color="#e6b964"/>
      <stop offset="0.173" stop-color="#b48741"/>
      <stop offset="0.224" stop-color="#9e7132"/>
      <stop offset="0.424" stop-color="#f8e889"/>
      <stop offset="0.474" stop-color="#f3e184"/>
      <stop offset="0.54" stop-color="#e6d078"/>
      <stop offset="0.615" stop-color="#d1b463"/>
      <stop offset="0.698" stop-color="#b48d47"/>
      <stop offset="0.785" stop-color="#8f5c23"/>
      <stop offset="0.788" stop-color="#8e5b22"/>
      <stop offset="0.984" stop-color="#844e23"/>
      <stop offset="1" stop-color="#844d24"/>
    </linearGradient>
    <linearGradient id="linear-gradient-2" x1="0.111" y1="0.888" x2="0.945" y2="0.134" xlink:href="#linear-gradient"/>
    <linearGradient id="linear-gradient-3" x1="0.026" y1="0.356" x2="0.774" y2="0.71" gradientUnits="objectBoundingBox">
      <stop offset="0" stop-color="#281809"/>
      <stop offset="0.6" stop-color="#754c29"/>
      <stop offset="0.659" stop-color="#815325"/>
      <stop offset="0.739" stop-color="#8e5b22"/>
      <stop offset="0.988" stop-color="#281809"/>
      <stop offset="1" stop-color="#281809"/>
    </linearGradient>
    <linearGradient id="linear-gradient-4" x1="0.995" y1="0.33" x2="0.251" y2="0.718" gradientUnits="objectBoundingBox">
      <stop offset="0" stop-color="#281809"/>
      <stop offset="0.012" stop-color="#281809"/>
      <stop offset="0.261" stop-color="#8e5b22"/>
      <stop offset="0.341" stop-color="#815325"/>
      <stop offset="0.4" stop-color="#754c29"/>
      <stop offset="1" stop-color="#281809"/>
    </linearGradient>
    <linearGradient id="linear-gradient-5" y1="0.5" x2="1" y2="0.5" gradientUnits="objectBoundingBox">
      <stop offset="0.176" stop-color="#fdd551"/>
      <stop offset="0.382" stop-color="#ffff94"/>
      <stop offset="0.515" stop-color="#fdd551"/>
      <stop offset="0.648" stop-color="#eec54b"/>
      <stop offset="0.915" stop-color="#dcb444"/>
      <stop offset="1" stop-color="#fdd551"/>
    </linearGradient>
    <linearGradient id="linear-gradient-25" x1="0.163" y1="-0.158" x2="0.855" y2="1.537" gradientUnits="objectBoundingBox">
      <stop offset="0" stop-color="#e6b964"/>
      <stop offset="0.055" stop-color="#e6b964"/>
      <stop offset="0.447" stop-color="#f6e385"/>
      <stop offset="0.485" stop-color="#f8e889"/>
      <stop offset="0.52" stop-color="#f3e184"/>
      <stop offset="0.568" stop-color="#e6d078"/>
      <stop offset="0.622" stop-color="#d1b463"/>
      <stop offset="0.681" stop-color="#b48d47"/>
      <stop offset="0.744" stop-color="#8f5c23"/>
      <stop offset="0.745" stop-color="#8e5b22"/>
      <stop offset="0.78" stop-color="#99672a"/>
      <stop offset="0.843" stop-color="#b98942"/>
      <stop offset="0.921" stop-color="#e8ba65"/>
      <stop offset="0.982" stop-color="#844d24"/>
      <stop offset="1" stop-color="#281809"/>
    </linearGradient>
    <linearGradient id="linear-gradient-26" x1="0.094" y1="0.998" x2="1.012" y2="0.133" gradientUnits="objectBoundingBox">
      <stop offset="0" stop-color="#281809"/>
      <stop offset="0.018" stop-color="#844d24"/>
      <stop offset="0.079" stop-color="#e8ba65"/>
      <stop offset="0.148" stop-color="#b98942"/>
      <stop offset="0.205" stop-color="#99672a"/>
      <stop offset="0.236" stop-color="#8e5b22"/>
      <stop offset="0.238" stop-color="#8f5c23"/>
      <stop offset="0.305" stop-color="#b48d47"/>
      <stop offset="0.369" stop-color="#d1b463"/>
      <stop offset="0.427" stop-color="#e6d078"/>
      <stop offset="0.477" stop-color="#f3e184"/>
      <stop offset="0.515" stop-color="#f8e889"/>
      <stop offset="0.553" stop-color="#f6e385"/>
      <stop offset="0.945" stop-color="#e6b964"/>
      <stop offset="1" stop-color="#e6b964"/>
    </linearGradient>
    <linearGradient id="linear-gradient-27" x1="0.025" y1="0.08" x2="0.856" y2="1.027" xlink:href="#linear-gradient-25"/>
  </defs>
  <g id="Group_24" data-name="Group 24" transform="translate(-678.839 -211)">
    <g id="Group_169" data-name="Group 169">
      <path id="Path_271" data-name="Path 271" d="M15.72-10.44a4.378,4.378,0,0,1-.26,1.42,17.065,17.065,0,0,1-2.08,4.36,29.52,29.52,0,0,1-1.3-7.78h6.96v-.72h-7C12-14.48,12-15.28,12-15.92c0-.08.22-.46.22-.54,0-.18-.04-.18-.38-.18l-1.64-.02a14.1,14.1,0,0,1,.32,3.5H2.64V-7.2c0,3.08-.22,6.32-2.2,8.42l.74.4A11.845,11.845,0,0,0,4.26-6.84V-8.46h3.3A23.278,23.278,0,0,1,7.28-3.9c-.18.6-.38.92-1.06.92a7.734,7.734,0,0,1-1.64-.24l.36.94h1.7c1.02,0,1.84,0,2.2-1.68a31.938,31.938,0,0,0,.38-5.22H4.26v-3.26h6.3A31.754,31.754,0,0,0,12.3-3.22,11.673,11.673,0,0,1,6.72.64l.62.68a11.669,11.669,0,0,0,5.5-3.42c.84,1.56,2.38,3.7,3.76,3.7.68,0,1.6-.26,2.82-3.5a3.114,3.114,0,0,1-1.28-1.06c-.34,1.18-.86,2.8-1.6,2.8-.54,0-1.7-1.24-2.62-3.18A27.351,27.351,0,0,0,17.26-9c.44-.32.5-.36.5-.46,0-.14-.08-.16-.32-.26Zm1.7-4.18a17.076,17.076,0,0,0-3.3-2.04l-.46.64a17.257,17.257,0,0,1,2.74,2.5Zm9.86.66c-.14.58-.24.92-1.78,2.86-.34-.32-.74-.72-1.66-1.48.96-1.02,2.34-2.72,2.58-3,.2-.08.5-.26.5-.38,0-.08,0-.08-.24-.2l-1.54-.74a3.893,3.893,0,0,1-.14.62,27.114,27.114,0,0,1-1.88,3.12c-.84-.62-1.24-.9-1.64-1.18l-.54.68a16.815,16.815,0,0,1,3.52,3.82,24.9,24.9,0,0,1-2,2.14c-.46.04-.76.06-1,.06-.2,0-.26-.02-.84-.08l.4,1.16c.12.36.14.4.24.4.12,0,.14-.04.36-.4.38-.06,2.28-.32,2.7-.4V1.48H25.8V-7.18c.56-.08,1.36-.22,2.04-.36a12.972,12.972,0,0,1,.6,1.58l1.36-.8a15.083,15.083,0,0,0-2.28-3.06l-.68.46c.26.42.46.76.7,1.2-1.42.18-3.24.34-3.54.36.68-.64,3.26-3.4,4.64-4.86.52-.24.58-.26.58-.36s-.04-.1-.36-.24ZM21.76-5.68a7.017,7.017,0,0,1,.06.88A13.131,13.131,0,0,1,20.62.08l.86.32a21.068,21.068,0,0,0,1.94-5.12c.28-.42.32-.46.32-.5,0-.16-.14-.18-.36-.22ZM32.38-12.6c.98-1.52,1.34-2.2,1.62-2.7.44-.42.5-.46.5-.6,0-.06,0-.08-.38-.24l-1.64-.66c-.02,1.38-1.46,4.98-3.58,7.42l.82.38a23.239,23.239,0,0,0,2.18-2.88H37c.02.58.06,1.2.06,2.2,0,4.4-.1,8.26-.98,9.52a1.569,1.569,0,0,1-1.54.7A7.656,7.656,0,0,1,32.48.3l.26.88,2.5.08A2.556,2.556,0,0,0,37.8-.28c.7-1.6.92-8.48.82-12.32ZM29.46-1.24a17.875,17.875,0,0,0-1.94-4.5l-.74.44A15.227,15.227,0,0,1,27.86-.32ZM34.5-4.36a21.57,21.57,0,0,0-2.66-4.18l-.72.5A21.6,21.6,0,0,1,33-3.48ZM49.56-.78a19.419,19.419,0,0,0-1.88-.96,9.253,9.253,0,0,0,1.68-3.18h1.42v-.72H45.56c.42-.72.48-.82.64-1.1.18,0,.48.02.48-.22,0-.12-.18-.2-.22-.22L45-7.78a10.164,10.164,0,0,1-1.06,2.14H41v.72h2.48c-.66.92-1.24,1.62-1.96,2.46a25.716,25.716,0,0,1,4.3,1.02A8.743,8.743,0,0,1,40.74.6l.46.8A11.639,11.639,0,0,0,46.9-.92,15.886,15.886,0,0,1,48.68.34Zm.68-9.1a10.384,10.384,0,0,1-2.48-2.24H50.4v-.72H46.98v-2.92a3.332,3.332,0,0,0,.16-.6c0-.14-.12-.2-.28-.22l-1.36-.14a6.068,6.068,0,0,1,.1,1.18v2.7H41.1v.72h3.26a10.228,10.228,0,0,1-3.62,3.66l.6.56a11.433,11.433,0,0,0,4.26-3.72V-7.9h1.38v-3.54A7.819,7.819,0,0,0,49.8-9.42ZM47.78-4.92a8.652,8.652,0,0,1-1.3,2.72,19.578,19.578,0,0,0-2.86-.64,16.539,16.539,0,0,0,1.5-2.08ZM59.2.9a11.418,11.418,0,0,1-4.08-3.38c1.94-2.72,2.12-5.86,2.24-9.2h1.66v-.72H52.84a25.342,25.342,0,0,0,1.18-3.28c.18-.06.46-.22.46-.44,0-.08-.04-.14-.26-.2l-1.7-.5A18.355,18.355,0,0,1,49.58-8.3l.86.28a22.168,22.168,0,0,0,2.08-3.66h3.14c0,3.24-.2,6.06-1.2,8.06-.8-1.64-1-3-.94-6.34l-1.5.12c.08,2.2.22,4.96,1.76,7.32a11.072,11.072,0,0,1-4.82,3.54l.6.6A12.351,12.351,0,0,0,54.42-1.6a13.237,13.237,0,0,0,4.14,3.2ZM44.86-14.12a14.714,14.714,0,0,0-2.46-2.22l-.56.62a12.285,12.285,0,0,1,1.94,2.52Zm4.7-2.24a9.089,9.089,0,0,1-1.88,2.5l.64.54c.3-.24,1.7-1.46,2.04-1.72.24.02.32-.04.32-.2a.308.308,0,0,0-.12-.22Z" transform="translate(751 249)" fill="#1e1e1e"/>
      <path id="Path_272" data-name="Path 272" d="M1.785,0h6.65V-23.555L18.935,0H26.74V-28.105H20.09V-4.55L9.59-28.105H1.785ZM42.77-28.665c-8.33,0-13.16,5.775-13.16,14.6,0,8.715,4.725,14.6,13.16,14.6,8.61,0,13.195-6.055,13.195-14.6C55.965-22.89,51.135-28.665,42.77-28.665Zm0,2.8c3.6,0,6.16,1.855,6.16,11.8,0,9.905-2.52,11.76-6.16,11.8-3.57,0-6.09-1.82-6.125-11.8C36.645-23.94,39.165-25.865,42.77-25.865ZM79.31,0H86V-28.105h-6.58c-1.89,2.765-4.865,3.325-6.545,3.6v2.765a16.617,16.617,0,0,0,6.44-1.12Z" transform="translate(733 292)" fill="#ff4600"/>
    </g>
    <g id="Group_21" data-name="Group 21" transform="translate(-975 -266.108)">
      <path id="Path_8" data-name="Path 8" d="M1953.154,654.387c1.1-3.076,13.513.377,19.007,10.7,5.394,9.849,17.5,14.71,17.575,14.886q-1.883-7.429-4.314-14.841a138.388,138.388,0,0,1,14.719-4.063c-.076-.187-13.424-6-19.706-16.332-6.368-10.85-20.07-14.845-21.2-11.775Z" transform="translate(-144.32 -55.354)" fill="url(#linear-gradient)"/>
      <path id="Path_9" data-name="Path 9" d="M1248.322,652.053c-1.1-3.075-13.542.39-19.056,10.724-5.414,9.859-17.545,14.744-17.625,14.92q2.1-7.3,4.751-14.555a139.336,139.336,0,0,0-15.155-4.35c.075-.187,13.455-6.018,19.754-16.365,6.388-10.862,20.117-14.869,21.253-11.8Q1245.284,641.34,1248.322,652.053Z" transform="translate(452.602 -53.503)" fill="url(#linear-gradient-2)"/>
      <path id="Path_10" data-name="Path 10" d="M1962.532,666.964c1.413-4.131-10.885-5.944-9.692-8.715l6.077-21.425c-1.143,2.489,19.519,10.234,17.857,14.552Q1969.322,658.876,1962.532,666.964Z" transform="translate(-144.006 -59.216)" fill="url(#linear-gradient-3)"/>
      <path id="Path_11" data-name="Path 11" d="M1326.21,665.286c-1.433-4.133,11.1-6.613,9.915-9.379q-3.038-10.713-6.078-21.424c1.127,2.476-19.8,10.932-18.112,15.256Q1319.4,657.217,1326.21,665.286Z" transform="translate(364.798 -57.357)" fill="url(#linear-gradient-4)"/>
      <g id="Group_14" data-name="Group 14" transform="translate(1681.247 477.334)">
        <path id="Path_81" data-name="Path 81" d="M1589.292,152.774h.01c-.005,0,1.13-1.07,1.438-1.273-.006,0-1.088,1.048-1.438,1.273h0c1.563-.574,2.837-1.617,2.69-2.407C1590.328,150.858,1589.186,151.966,1589.292,152.774Z" transform="translate(-1536.703 -150.369)" fill="url(#linear-gradient-5)"/>
        <path id="Path_82" data-name="Path 82" d="M1425.451,285.16c-.7.387-4.021,1.786-4.017,1.813,0,.009,0,.018,0,.026,2.064,1.253,5.276-.076,7.607-3.021-1.718-1.664-5.334-.326-7.605,2.987a.015.015,0,0,0,0,.007A20.3,20.3,0,0,1,1425.451,285.16Z" transform="translate(-1403.452 -255.869)" fill="url(#linear-gradient-5)"/>
        <path id="Path_83" data-name="Path 83" d="M1380.965,392.5c-.614.706-3.737,3.669-3.719,3.706,0,.01.008.021.012.031,2.966.545,5.983-2.283,7.239-6.473-2.745-1.229-6.253,1.695-7.254,6.433a.042.042,0,0,1,0,.008C1377.786,395.133,1380.951,392.462,1380.965,392.5Z" transform="translate(-1368.37 -340.191)" fill="url(#linear-gradient-5)"/>
        <path id="Path_84" data-name="Path 84" d="M1377.145,423.661c-.593.828-3.665,4.407-3.639,4.45.005.011.011.021.016.033,3.308.256,6.269-3.154,7.181-7.814-3.135-1.074-6.663,2.467-7.2,7.772l0,.009C1373.969,426.875,1377.125,423.621,1377.145,423.661Z" transform="translate(-1365.4 -364.53)" fill="url(#linear-gradient-5)"/>
        <path id="Path_85" data-name="Path 85" d="M1380.264,504.634c4.2-.782,6.758-5.907,6.56-11.826-4.243-.487-7.684,4.939-6.6,11.781l.009.009Zm3.093-6.706c-.487,1.144-3.011,6.264-3.121,6.648C1380.413,502.841,1383.31,497.869,1383.357,497.928Z" transform="translate(-1370.577 -422.196)" fill="url(#linear-gradient-5)"/>
        <path id="Path_86" data-name="Path 86" d="M1347.653,608.752c3.416,9.144,11.267,12.763,15.511,9.826,0-.02,0-.039,0-.058-.015.125-6.91-3.379-8.307-4.8.462.352,6.758,3.664,8.307,4.8V618.5C1358.523,611.661,1352.4,606.472,1347.653,608.752Z" transform="translate(-1344.88 -513.832)" fill="url(#linear-gradient-5)"/>
        <path id="Path_87" data-name="Path 87" d="M1448.974,642.442c4.521-3.969,3.976-11.889.265-18.935-5.679,1.939-6.791,11.086-.347,18.905l.017.007C1448.931,642.426,1448.952,642.434,1448.974,642.442Zm-.878-10.42c.076,1.695.589,9.6.787,10.341C1447.762,640.033,1447.951,631.959,1448.1,632.022Z" transform="translate(-1421.766 -525.977)" fill="url(#linear-gradient-5)"/>
        <path id="Path_88" data-name="Path 88" d="M1418.72,738.107c7.894,8.644,18.439,8.982,21.458,3.941-.011-.02-.021-.041-.032-.06.036.164-9.128-.524-11.323-1.489.749.2,9.07,1.014,11.323,1.489l-.009-.017C1431.642,736.826,1422.838,733.672,1418.72,738.107Z" transform="translate(-1401.298 -615.278)" fill="url(#linear-gradient-5)"/>
        <path id="Path_89" data-name="Path 89" d="M1469.2,792.05c11.856,8.659,25.141,6.179,27-.466l-.06-.061c.092.22-11.16,1.785-14.11,1.138,1.066.07,11.23-1.026,14.11-1.138a.16.16,0,0,1-.016-.017C1484.155,787.913,1473.019,785.971,1469.2,792.05Z" transform="translate(-1441.374 -656.668)" fill="url(#linear-gradient-5)"/>
        <path id="Path_90" data-name="Path 90" d="M1417.869,292.576c0-.025,0-.229,0-.253a80.146,80.146,0,0,1-28.791-5.215c2.61-6.525-2.768-14.554-10.088-20.445-5.13,4.5-2.453,14.626,8.857,19.99a69.934,69.934,0,0,1-14.7-7.67c3.53-4.808,1.081-12.435-4.1-18.608-4.936,2.957-4.369,11.569,3.132,17.934a69.155,69.155,0,0,1-10.858-9.57A71.079,71.079,0,0,1,1352.581,257c4.526-2.6,5.473-9.468,3.263-16.178-4.933.853-7.2,7.849-3.813,15.238a73.11,73.11,0,0,1-4.862-10.2c4.566-1.643,6.524-7.8,5.422-14.326-4.726.092-7.779,6.391-5.645,13.742a74.086,74.086,0,0,1-4.532-20.618c3.852-.179,6.778-4.472,7.273-9.869-3.639-.859-7.212,3.315-7.314,9.275a72.714,72.714,0,0,1-.07-8.183,70.807,70.807,0,0,1,.771-7.569,69.608,69.608,0,0,1,1.475-7.029c2.9.816,6.187-1.71,7.9-5.766-2.513-1.431-6.148.9-7.751,5.231q.842-3.078,1.978-6.088c2.529.976,5.736-1.04,7.643-4.606-2.137-1.47-5.6.358-7.45,4.1q1.066-2.749,2.38-5.418c2.164,1.061,5.213-.507,7.222-3.595-1.786-1.446-5.007-.051-6.986,3.12q1.243-2.471,2.7-4.856,1.591-2.594,3.444-5.073c1.951,1.4,5.289.315,7.937-2.451-1.492-1.721-5.011-.83-7.61,2.016q1.638-2.147,3.477-4.194c1.637,1.387,4.758.627,7.4-1.732-1.208-1.631-4.446-1.037-7.037,1.331q1.673-1.83,3.511-3.567c1.361,1.341,4.249.838,6.833-1.159-.966-1.521-3.916-1.16-6.441.79q1.655-1.539,3.443-3c1.129,1.28,3.793.975,6.294-.715-.768-1.41-3.448-1.226-5.875.376q1.59-1.276,3.285-2.484c.944,1.218,3.416,1.064,5.832-.378-.61-1.311-3.061-1.261-5.391.066q1.573-1.1,3.237-2.147c.791,1.161,3.1,1.126,5.442-.112-.483-1.225-2.745-1.278-4.985-.173q1.483-.916,3.038-1.781c.63,1.042,2.675,1.1,4.815.08-.362-1.08-2.329-1.2-4.356-.335q1.357-.742,2.767-1.446c.519.962,2.385,1.075,4.392.218-.276-.981-2.045-1.149-3.926-.447q1.271-.625,2.589-1.216c.416.859,2.071,1.011,3.894.3-.2-.864-1.741-1.058-3.429-.513.71-.314,1.434-.617,2.162-.917-.03.014-.062.026-.091.04v0a14.527,14.527,0,0,1,1.941-.075c-.358.046-1.941.073-1.941.075s0,.006-.006.008c.554.623,2.115.617,3.627-.061-.379-.622-1.783-.648-3.168-.135.265-.107.528-.217.795-.322-.011-.023-.02-.044-.029-.067q-1.693.667-3.321,1.386c1.516-.87,2.479-2.046,1.976-2.792-1.916.8-2.892,2.161-2.442,3q-1.317.592-2.591,1.217c1.675-1.044,2.719-2.422,2.108-3.26-2.122.971-3.137,2.558-2.573,3.491q-1.411.7-2.769,1.447c1.783-1.223,2.863-2.793,2.141-3.7-2.278,1.153-3.286,2.952-2.6,3.957q-1.557.865-3.041,1.783c1.946-1.482,3.09-3.333,2.207-4.35-2.517,1.416-3.522,3.526-2.666,4.634q-1.663,1.045-3.239,2.149c1.989-1.705,3.1-3.776,2.07-4.841-2.611,1.657-3.525,4-2.513,5.154q-1.7,1.209-3.288,2.487c2.036-1.982,3.1-4.318,1.895-5.438-2.719,1.953-3.517,4.577-2.314,5.777q-1.789,1.459-3.446,3c2.07-2.326,3.057-4.986,1.635-6.162-2.833,2.326-3.467,5.287-2.027,6.53q-1.84,1.737-3.515,3.571c2.063-2.731,2.925-5.76,1.244-6.978-2.926,2.775-3.327,6.115-1.609,7.379q-1.84,2.047-3.478,4.2c1.99-3.185,2.655-6.608.68-7.839-2.958,3.291-3.042,7.027-1.009,8.274q-1.594,2.128-2.993,4.347c1.51-3.2,1.732-6.456-.275-7.488-2.565,3.46-2.3,7.146-.2,8.246q-1.453,2.373-2.69,4.835c1.324-3.407,1.28-6.831-.875-7.729-2.208,3.644-1.579,7.3.638,8.2q-1.317,2.671-2.382,5.424c1.112-3.924.732-7.758-1.762-8.586-2.1,4.272-1,8.307,1.569,9.092q-1.137,3.008-1.98,6.094c.787-4.441-.025-8.649-2.864-9.342-1.881,4.931-.2,9.286,2.719,9.878q-.808,3.051-1.333,6.154c.221-4.324-1.05-8.21-3.861-8.609-1.326,5.044.768,9.193,3.711,9.528q-.515,3.3-.717,6.631c-.249-4.781-2.057-8.953-5.192-9.112-.91,5.7,1.882,10.04,5.141,10.061a72.61,72.61,0,0,0,.072,8.152c-.874-5.726-3.494-10.642-7.252-10.476-.378,6.84,3.514,11.553,7.292,11.071a73.876,73.876,0,0,0,1.24,9.1c-1.859-5.98-5.347-10.861-9.377-10.183.537,7.637,5.53,12.276,9.585,11.191a74.051,74.051,0,0,0,3.09,10.534c-3.149-6.666-7.926-11.951-12.478-10.552,1.818,8.717,8.354,13.143,12.7,11.137a73.112,73.112,0,0,0,5.385,11.093,71.1,71.1,0,0,0,8.07,11.02c-6.712-6.252-14.277-10.658-19.046-7.268,5.792,9.962,15.742,12.39,19.815,8.116A69.258,69.258,0,0,0,1373.039,279a70.111,70.111,0,0,0,15.917,8.144C1397.539,290.24,1407.205,292.773,1417.869,292.576ZM1386.4,155.959c-.35.019-1.7-.1-2.032-.116l.038-.018A14.991,14.991,0,0,1,1386.4,155.959Zm-.809-1.731s-.824,1.134-1.218,1.532l-.037.017A17.006,17.006,0,0,1,1385.59,154.227Zm-1.981,3.119c-.4.032-1.947-.05-2.3-.061l.038-.019A16.24,16.24,0,0,1,1383.61,157.346Zm-1.008-1.934c-.006,0-.874,1.333-1.287,1.79l-.038.019A18.433,18.433,0,0,1,1382.6,155.412Zm-1.992,3.549c-.432.05-2.156.019-2.526.021l.037-.02A17.17,17.17,0,0,1,1380.609,158.961Zm-1.226-2.1c-.008,0-.884,1.523-1.3,2.035l-.037.021A19.188,19.188,0,0,1,1379.383,156.865Zm-1.937,4.041c-.488.074-2.467.117-2.861.14.011-.009.024-.015.036-.023A18.275,18.275,0,0,1,1377.446,160.906Zm-1.534-2.335c-.01,0-.9,1.8-1.335,2.391l-.036.022A20.567,20.567,0,0,1,1375.912,158.571Zm-1.941,4.637c-.521.1-2.659.25-3.068.293l.035-.024A18.958,18.958,0,0,1,1373.972,163.207Zm-1.826-2.452c-.011,0-.841,2.011-1.253,2.664l-.034.024A21.183,21.183,0,0,1,1372.146,160.755Zm-1.637,5.078c-.558.139-2.89.418-3.311.487.011-.009.021-.018.033-.026A19.657,19.657,0,0,1,1370.509,165.833Zm-2.182-2.585c-.014,0-.756,2.263-1.146,2.991-.012.009-.023.018-.032.026A22.051,22.051,0,0,1,1368.326,163.248Zm-1.375,5.689c-.6.186-3.161.642-3.592.743l.03-.028A20.6,20.6,0,0,1,1366.951,168.937Zm-2.625-2.722c-.018,0-.634,2.566-.991,3.384l-.03.03A23.292,23.292,0,0,1,1364.327,166.215Zm-.959,6.355c-.647.245-3.446.936-3.887,1.073l.027-.03A21.42,21.42,0,0,1,1363.367,172.57Zm-3.154-2.833c-.021,0-.453,2.908-.763,3.83l-.027.03A24.785,24.785,0,0,1,1360.213,169.737Zm-.38,7.048c-.688.315-3.716,1.3-4.16,1.484l.025-.033A22.232,22.232,0,0,1,1359.832,176.785Zm-3.759-2.886c-.026.008-.2,3.267-.439,4.295-.007.011-.016.022-.025.033A26.538,26.538,0,0,1,1356.073,173.9Zm-3.876,5.129c-.02.008.12,3.073.008,4.192l-.037.062A25.933,25.933,0,0,1,1352.2,179.028Zm-2.906,9.6a21.025,21.025,0,0,1,3.736-2.045c-.6.41-3.354,1.835-3.754,2.081Zm-.474-4.28c-.021.011.444,3.209.406,4.248l-.018.036A26.948,26.948,0,0,1,1348.817,184.351Zm-2.108,10.2a22.029,22.029,0,0,1,3.94-2.615c-.63.5-3.559,2.352-3.954,2.651Zm-.978-4.732c-.025.016.839,3.563.907,4.707,0,.012-.009.024-.013.036A29.177,29.177,0,0,1,1345.732,189.818Zm-1.154,11.352a23.03,23.03,0,0,1,4.046-3.266c-.64.61-3.675,2.945-4.056,3.3C1344.571,201.194,1344.574,201.182,1344.577,201.17Zm-1.6-5.125c-.028.022,1.322,3.868,1.524,5.105,0,.013-.007.025-.01.038A31.7,31.7,0,0,1,1342.98,196.045ZM1341,203.309c-.021.021,1.638,3.54,2.027,4.826,0,.024-.008.048-.011.071A31.486,31.486,0,0,1,1341,203.309Zm-1.541,7.317c-.024.029,2.212,3.738,2.778,5.085,0,.023,0,.048,0,.073A33.952,33.952,0,0,1,1339.456,210.626Zm-1.07,8.276c.169.3,3.224,4.3,3.943,5.638,0,.013,0,.025,0,.039A38.411,38.411,0,0,1,1338.386,218.9Zm4.018,5.633c.446-1.58,3.553-5.566,3.581-5.518-.544.964-3.314,5.023-3.578,5.556C1342.406,224.56,1342.4,224.548,1342.4,224.534Zm-3.78,4.46c.226.3,4.039,4.152,5.116,5.559.006.026.011.05.017.076A40.214,40.214,0,0,1,1338.624,228.994Zm1.635,11.249c.343.354,5.459,4.2,6.793,5.521,0,.012.009.024.014.036C1346.506,245.541,1341.271,241.63,1340.259,240.243Zm6.863,5.5c-.082-2.07,2.3-8.009,2.369-7.945-.354,1.335-2.273,7.307-2.355,7.981C1347.131,245.762,1347.126,245.75,1347.122,245.738Zm5.344,11.064c-.437-2.3,1.035-8.865,1.117-8.808-.147,1.449-1.1,7.876-1.078,8.875Zm-1.691,8.255c.611.313,8.12,2.685,10.389,3.614l.054.059C1360.206,268.645,1352.552,266.308,1350.775,265.058Zm22.175,13.788c-1.692-2.213-3.266-9.906-3.119-9.878.475,1.615,2.641,8.944,3.187,9.925Zm15.878,8.171c-2.848-2.044-7.015-10.621-6.78-10.626.942,1.771,5.874,9.769,6.862,10.655Z" transform="translate(-1334.2 -152.304)" fill="url(#linear-gradient-5)"/>
      </g>
      <g id="Group_15" data-name="Group 15" transform="translate(1745.883 477.108)">
        <path id="Path_91" data-name="Path 91" d="M1788.076,151.683h0c-.349-.226-1.431-1.273-1.437-1.273.307.2,1.443,1.272,1.437,1.273h.01c.107-.808-1.036-1.916-2.7-2.4C1785.238,150.065,1786.512,151.11,1788.076,151.683Z" transform="translate(-1757.008 -149.276)" fill="url(#linear-gradient-5)"/>
        <path id="Path_92" data-name="Path 92" d="M1929.522,282.882c2.333,2.945,5.542,4.274,7.608,3.022,0-.009,0-.018,0-.027,0-.026-3.32-1.426-4.018-1.813a20.317,20.317,0,0,1,4.018,1.813s0-.006,0-.008C1934.857,282.556,1931.24,281.218,1929.522,282.882Z" transform="translate(-1871.443 -254.774)" fill="url(#linear-gradient-5)"/>
        <path id="Path_93" data-name="Path 93" d="M1975.424,388.666c1.257,4.189,4.274,7.018,7.241,6.473l.012-.031c.018-.037-3.1-3-3.719-3.705.013-.036,3.178,2.635,3.719,3.705a.055.055,0,0,1,0-.009C1981.678,390.36,1978.17,387.437,1975.424,388.666Z" transform="translate(-1907.883 -339.097)" fill="url(#linear-gradient-5)"/>
        <path id="Path_94" data-name="Path 94" d="M1979.428,419.237c.912,4.66,3.872,8.069,7.18,7.813l.016-.033c.026-.042-3.046-3.621-3.639-4.448.02-.041,3.176,3.213,3.639,4.448l0-.009C1986.091,421.7,1982.562,418.163,1979.428,419.237Z" transform="translate(-1911.062 -363.436)" fill="url(#linear-gradient-5)"/>
        <path id="Path_95" data-name="Path 95" d="M1974.807,491.714c-.2,5.919,2.359,11.044,6.56,11.826.011-.012.02-.023.03-.035l.009-.01C1982.491,496.653,1979.049,491.226,1974.807,491.714Zm3.467,5.12c.047-.059,2.944,4.914,3.121,6.647C1981.285,503.1,1978.76,497.978,1978.274,496.834Z" transform="translate(-1907.384 -421.102)" fill="url(#linear-gradient-5)"/>
        <path id="Path_96" data-name="Path 96" d="M1973.27,612.623c-1.4,1.423-8.293,4.928-8.307,4.8,0,.018,0,.038,0,.057,4.245,2.937,12.095-.681,15.511-9.825-4.749-2.281-10.87,2.908-15.509,9.752,0,.006,0,.011,0,.017C1966.511,616.288,1972.807,612.976,1973.27,612.623Z" transform="translate(-1899.577 -512.737)" fill="url(#linear-gradient-5)"/>
        <path id="Path_97" data-name="Path 97" d="M1909,622.409c-3.711,7.047-4.257,14.967.265,18.935l.065-.022.018-.006C1915.794,633.5,1914.681,624.349,1909,622.409Zm.355,18.856c.2-.742.712-8.645.787-10.34C1910.291,630.861,1910.479,638.935,1909.358,641.264Z" transform="translate(-1852.807 -524.88)" fill="url(#linear-gradient-5)"/>
        <path id="Path_98" data-name="Path 98" d="M1876.4,739.4c-2.2.966-11.36,1.655-11.325,1.49l-.031.061c3.019,5.041,13.564,4.7,21.457-3.942-4.118-4.436-12.922-1.281-21.416,3.864l-.009.017C1867.334,740.414,1875.656,739.6,1876.4,739.4Z" transform="translate(-1820.26 -614.18)" fill="url(#linear-gradient-5)"/>
        <path id="Path_99" data-name="Path 99" d="M1801.837,791.566c-2.951.648-14.2-.915-14.111-1.136l-.058.06c1.861,6.646,15.147,9.126,27,.467-3.815-6.079-14.951-4.137-26.927-.545l-.017.017C1790.606,790.54,1800.77,791.637,1801.837,791.566Z" transform="translate(-1758.829 -655.575)" fill="url(#linear-gradient-5)"/>
        <path id="Path_100" data-name="Path 100" d="M1731.239,233.653c-4.553-1.4-9.33,3.886-12.478,10.552a74.369,74.369,0,0,0,3.09-10.534c4.055,1.085,9.047-3.553,9.585-11.191-4.03-.678-7.517,4.2-9.377,10.184a73.866,73.866,0,0,0,1.24-9.1c3.779.482,7.67-4.23,7.292-11.07-3.758-.166-6.378,4.749-7.252,10.475a72.442,72.442,0,0,0,.072-8.15c3.259-.021,6.051-4.359,5.14-10.061-3.135.159-4.941,4.33-5.192,9.112q-.2-3.328-.716-6.632c2.943-.335,5.036-4.485,3.711-9.528-2.811.4-4.081,4.285-3.862,8.609q-.525-3.1-1.332-6.154c2.919-.59,4.6-4.946,2.719-9.877-2.84.692-3.651,4.9-2.864,9.342q-.842-3.084-1.979-6.094c2.57-.785,3.673-4.819,1.568-9.093-2.494.829-2.874,4.661-1.761,8.586q-1.065-2.751-2.382-5.424c2.217-.9,2.846-4.558.637-8.2-2.152.9-2.2,4.322-.873,7.729q-1.237-2.459-2.691-4.835c2.1-1.1,2.37-4.785-.2-8.245-2.006,1.031-1.784,4.289-.276,7.487q-1.4-2.217-2.992-4.347c2.031-1.247,1.948-4.983-1.01-8.274-1.974,1.231-1.308,4.655.681,7.838q-1.638-2.151-3.48-4.2c1.719-1.264,1.319-4.6-1.607-7.379-1.681,1.219-.819,4.249,1.244,6.979q-1.674-1.831-3.514-3.571c1.439-1.243.806-4.2-2.028-6.53-1.422,1.176-.435,3.836,1.634,6.161q-1.655-1.54-3.445-3c1.2-1.2.405-3.824-2.314-5.777-1.2,1.119-.141,3.456,1.894,5.437q-1.591-1.276-3.287-2.486c1.013-1.154.1-3.5-2.511-5.154-1.028,1.064.08,3.135,2.07,4.842q-1.576-1.106-3.239-2.15c.856-1.109-.149-3.218-2.667-4.636-.882,1.016.261,2.869,2.207,4.35q-1.486-.916-3.041-1.783c.684-1-.324-2.8-2.6-3.957-.723.91.357,2.481,2.14,3.7q-1.357-.744-2.769-1.447c.564-.933-.45-2.521-2.573-3.492-.611.839.433,2.216,2.108,3.261q-1.274-.625-2.591-1.217c.449-.84-.527-2.2-2.443-3-.5.747.459,1.922,1.976,2.792q-1.629-.719-3.321-1.386c-.011.022-.019.044-.03.066.268.105.53.215.8.322-1.385-.513-2.79-.487-3.169.135,1.513.677,3.073.683,3.628.06a.041.041,0,0,1-.006-.008s-1.582-.03-1.941-.076a14.551,14.551,0,0,1,1.941.076h0c-.031-.015-.062-.027-.093-.041q1.094.449,2.164.917c-1.689-.545-3.228-.352-3.43.512,1.823.707,3.479.554,3.895-.3q1.317.591,2.589,1.216c-1.881-.7-3.65-.533-3.926.449,2.007.857,3.872.743,4.392-.219q1.41.7,2.766,1.446c-2.026-.865-3.995-.746-4.355.334,2.14,1.015,4.184.963,4.815-.08q1.555.864,3.038,1.78c-2.241-1.1-4.5-1.052-4.985.173,2.343,1.239,4.651,1.273,5.443.112q1.662,1.043,3.236,2.147c-2.329-1.326-4.78-1.376-5.391-.067,2.417,1.443,4.889,1.6,5.832.379q1.695,1.207,3.286,2.484c-2.428-1.6-5.107-1.785-5.876-.376,2.5,1.691,5.166,1.995,6.293.715q1.788,1.456,3.444,3c-2.526-1.951-5.474-2.311-6.441-.79,2.585,2,5.473,2.5,6.833,1.158q1.839,1.736,3.511,3.567c-2.591-2.369-5.829-2.962-7.037-1.331,2.642,2.359,5.764,3.118,7.4,1.731q1.839,2.045,3.475,4.2c-2.6-2.847-6.117-3.738-7.608-2.016,2.647,2.766,5.985,3.848,7.937,2.451q1.855,2.475,3.445,5.072,1.46,2.384,2.7,4.856c-1.978-3.171-5.2-4.565-6.987-3.119,2.011,3.087,5.059,4.655,7.223,3.593q1.314,2.667,2.379,5.418c-1.849-3.743-5.312-5.571-7.45-4.1,1.908,3.568,5.114,5.583,7.644,4.607q1.135,3.005,1.976,6.088c-1.6-4.332-5.237-6.662-7.75-5.231,1.708,4.056,5,6.581,7.9,5.766a69.694,69.694,0,0,1,1.475,7.028,71.431,71.431,0,0,1,.771,7.569,72.525,72.525,0,0,1-.071,8.184c-.1-5.961-3.674-10.133-7.314-9.275.494,5.4,3.422,9.691,7.274,9.868a74.034,74.034,0,0,1-4.533,20.62c2.135-7.351-.918-13.651-5.645-13.742-1.1,6.524.856,12.683,5.423,14.325a73.145,73.145,0,0,1-4.863,10.2c3.39-7.391,1.12-14.386-3.813-15.238-2.211,6.709-1.263,13.581,3.264,16.178a71.15,71.15,0,0,1-8.745,11.743,69.261,69.261,0,0,1-10.858,9.57c7.5-6.365,8.067-14.978,3.131-17.935-5.177,6.173-7.627,13.8-4.1,18.609a70,70,0,0,1-14.7,7.67c11.31-5.365,13.988-15.492,8.857-19.99-7.318,5.89-12.7,13.918-10.088,20.444a80.121,80.121,0,0,1-28.791,5.214c0,.025,0,.228,0,.253,10.665.2,20.33-2.335,28.913-5.432A70.139,70.139,0,0,0,1692.6,277.9a69.234,69.234,0,0,0,11.718-10.152c4.072,4.274,14.023,1.845,19.814-8.117-4.769-3.39-12.333,1.015-19.046,7.268a71.092,71.092,0,0,0,8.07-11.02,73.244,73.244,0,0,0,5.386-11.093C1722.884,246.794,1729.42,242.369,1731.239,233.653Zm-52-78.788a14.8,14.8,0,0,1,1.993-.134l.039.017C1680.937,154.769,1679.586,154.884,1679.236,154.865Zm2.026-.2c-.394-.4-1.213-1.532-1.218-1.531a16.673,16.673,0,0,1,1.255,1.549Zm.762,1.587a16.285,16.285,0,0,1,2.261-.08l.037.018C1683.972,156.2,1682.421,156.285,1682.025,156.252Zm2.3-.143c-.413-.457-1.281-1.79-1.288-1.79a18.265,18.265,0,0,1,1.327,1.808Zm.705,1.758a17.058,17.058,0,0,1,2.489,0l.036.021C1687.182,157.885,1685.459,157.917,1685.027,157.867Zm2.527-.061c-.418-.512-1.295-2.035-1.3-2.035a18.936,18.936,0,0,1,1.339,2.055Zm.635,2.006a18.223,18.223,0,0,1,2.825.118l.036.021C1690.656,159.929,1688.677,159.887,1688.189,159.811Zm2.868.057c-.43-.591-1.325-2.392-1.335-2.392a20.58,20.58,0,0,1,1.371,2.414Zm.606,2.245a18.978,18.978,0,0,1,3.033.269l.035.024C1694.322,162.363,1692.184,162.217,1691.663,162.113Zm3.079.211c-.412-.654-1.241-2.663-1.253-2.664a20.958,20.958,0,0,1,1.287,2.688Zm.384,2.414a19.753,19.753,0,0,1,3.278.461l.032.026C1698.017,165.157,1695.685,164.879,1695.126,164.739Zm3.328.406c-.39-.728-1.132-2.989-1.145-2.99a22.177,22.177,0,0,1,1.177,3.017Zm.23,2.7a20.5,20.5,0,0,1,3.562.715l.03.028C1701.845,168.485,1699.285,168.029,1698.684,167.843Zm3.615.663c-.357-.819-.973-3.382-.992-3.385a23.152,23.152,0,0,1,1.022,3.413Zm-.031,2.97a21.462,21.462,0,0,1,3.859,1.043c.01.01.018.02.028.031C1705.714,172.412,1702.914,171.721,1702.268,171.476Zm3.917,1c-.31-.92-.742-3.823-.762-3.829a24.8,24.8,0,0,1,.789,3.86Zm-.381,3.219a22.193,22.193,0,0,1,4.135,1.451l.024.033C1709.519,176.992,1706.49,176.006,1705.8,175.69Zm4.221,1.442L1710,177.1c-.239-1.028-.414-4.287-.438-4.3A26.38,26.38,0,0,1,1710.025,177.133Zm3.4,4.994c-.112-1.12.028-4.185.009-4.193a25.956,25.956,0,0,1,.029,4.254Zm-.822,3.366a20.951,20.951,0,0,1,3.735,2.045c.006.011.012.023.018.035C1715.962,187.327,1713.21,185.9,1712.608,185.492Zm3.8,2.012c-.038-1.039.427-4.236.406-4.248a26.792,26.792,0,0,1-.389,4.284C1716.423,187.529,1716.417,187.516,1716.411,187.5Zm-1.425,3.337a22.061,22.061,0,0,1,3.94,2.615c0,.012.008.024.013.037C1718.544,193.192,1715.615,191.345,1714.986,190.841Zm4.01,2.588c.068-1.143.932-4.69.907-4.705a29.194,29.194,0,0,1-.894,4.743C1719.006,193.454,1719,193.442,1719,193.429Zm-1.984,3.38a23.071,23.071,0,0,1,4.045,3.265c0,.013.007.025.011.038C1720.687,199.754,1717.652,197.419,1717.012,196.81Zm4.119,3.246c.2-1.238,1.552-5.083,1.524-5.105a31.593,31.593,0,0,1-1.514,5.142C1721.136,200.08,1721.134,200.068,1721.131,200.056Zm1.481,6.985c.39-1.285,2.048-4.806,2.027-4.827a31.41,31.41,0,0,1-2.015,4.9C1722.619,207.087,1722.615,207.064,1722.612,207.041Zm.789,7.575c.568-1.347,2.8-5.055,2.779-5.085a33.854,33.854,0,0,1-2.776,5.158C1723.4,214.665,1723.4,214.64,1723.4,214.616Zm-.094,8.828c.718-1.342,3.773-5.336,3.943-5.637a38.329,38.329,0,0,1-3.946,5.676C1723.3,223.47,1723.306,223.458,1723.307,223.444Zm-3.656-5.522c.029-.048,3.135,3.937,3.581,5.517,0,.013,0,.027,0,.04C1722.964,222.945,1720.194,218.886,1719.65,217.922Zm2.244,15.538c1.077-1.409,4.891-5.256,5.116-5.561a40.127,40.127,0,0,1-5.133,5.635C1721.885,233.511,1721.889,233.486,1721.895,233.46Zm-3.311,11.209c1.333-1.325,6.45-5.166,6.792-5.52-1.012,1.387-6.248,5.3-6.806,5.556C1718.574,244.694,1718.579,244.682,1718.584,244.669Zm-41.776,41.255-.082.03c.987-.886,5.919-8.885,6.861-10.656C1683.823,275.3,1679.655,283.88,1676.808,285.924Zm15.81-8.126c.545-.979,2.711-8.309,3.187-9.924.146-.028-1.427,7.665-3.119,9.878Zm22.243-13.835c-1.778,1.251-9.433,3.588-10.443,3.674l.054-.059C1706.74,266.649,1714.25,264.278,1714.861,263.963Zm-1.692-8.254c-.014.022-.026.045-.041.067.021-1-.93-7.427-1.076-8.875C1712.134,246.843,1713.607,253.406,1713.169,255.709Zm5.344-11.064-.015.035c-.081-.674-2-6.645-2.354-7.982C1716.21,236.636,1718.6,242.574,1718.514,244.645Z" transform="translate(-1647.766 -151.211)" fill="url(#linear-gradient-5)"/>
      </g>
      <path id="Path_101" data-name="Path 101" d="M1443.625,606.647a131.828,131.828,0,0,0-34.788-10.3,118.064,118.064,0,0,0-12.518-1.207q-2.995-.125-6.012-.087c-19.826-.228-39.2,5.231-53.3,11.744-14.15,6.354-23.232,13.18-24.7,11.631q7.468,7.477,14.274,15.547c1.255,1.557,5.94,1.468,15.248-2.047,9.413-2.992,24.006-10.252,48.5-10.864,2.067.046,4.058.143,5.987.278a117.448,117.448,0,0,1,12.518,1.537c13.832,2.47,23.258,6.786,30.014,8.914,9.314,3.486,14,3.563,15.249,2q6.787-8.078,14.242-15.589C1466.876,619.76,1457.785,612.961,1443.625,606.647Z" transform="translate(364.424 -26.047)" fill="url(#linear-gradient-25)"/>
      <path id="Path_102" data-name="Path 102" d="M1390.307,595.053c-19.826-.228-39.2,5.231-53.3,11.744-14.15,6.354-23.232,13.18-24.7,11.631q7.468,7.477,14.274,15.547c1.255,1.557,5.94,1.468,15.248-2.047,9.413-2.992,24.006-10.252,48.5-10.864,2.067.046,4.058.143,5.987.278v-26.2Q1393.325,595.015,1390.307,595.053Z" transform="translate(364.424 -26.047)" fill="url(#linear-gradient-26)"/>
      <path id="Path_103" data-name="Path 103" d="M1767.167,607.022a131.833,131.833,0,0,0-34.788-10.3,118.065,118.065,0,0,0-12.517-1.207v26.2a117.445,117.445,0,0,1,12.517,1.537c13.832,2.47,23.258,6.786,30.014,8.914,9.314,3.486,14,3.563,15.25,2q6.786-8.078,14.242-15.589C1790.418,620.134,1781.326,613.336,1767.167,607.022Z" transform="translate(40.883 -26.421)" fill="url(#linear-gradient-27)"/>
    </g>
  </g>
</svg>
