<svg xmlns="http://www.w3.org/2000/svg" width="335" height="494" viewBox="0 0 335 494">
  <g id="Group_237" data-name="Group 237" transform="translate(-20 -7735)">
    <g id="Group_207" data-name="Group 207">
      <path id="Path_272" data-name="Path 272" d="M0,0H335V50L167.331,74,0,50Z" transform="translate(20 7735)" fill="#f70"/>
      <path id="Path_273" data-name="Path 273" d="M8-13.7A7.6,7.6,0,0,0,.384-6.08,7.614,7.614,0,0,0,8,1.536,7.624,7.624,0,0,0,15.616-6.08,7.614,7.614,0,0,0,8-13.7Zm0,.5a7.125,7.125,0,0,1,7.12,7.12A7.122,7.122,0,0,1,8,1.024,7.112,7.112,0,0,1,.88-6.08,7.125,7.125,0,0,1,8-13.2ZM8.72-.64V-11.52h-1.1a2.217,2.217,0,0,1-1.408.816v.592a3.228,3.228,0,0,0,1.424-.352V-.64ZM24.656-11.792v-1.2c.112-.192.128-.208.128-.256,0-.112-.1-.112-.272-.112l-1.248-.032a2.857,2.857,0,0,1,.144.88v.72h-6.32v.576h6.32v2.128h-5.2v.576H29.792v-.576H24.656v-2.128h6.288v-.576ZM16.96-6.72V-4.1h1.248V-6.144H29.68V-4.1h1.264V-6.72Zm.48,7.984c1.792-.3,5.3-1.056,5.3-4.992v-.864a1.02,1.02,0,0,0,.144-.336c0-.112-.112-.112-.224-.112l-1.408-.032a2.032,2.032,0,0,1,.192,1.024v.368c0,3.632-3.088,4.016-4.512,4.144ZM28.912.8C30.4.8,30.832.608,31.28-1.408a3.95,3.95,0,0,1-1.232-.7C29.824.24,29.264.24,28.352.24h-1.12c-1.008,0-1.024-.16-1.024-1.008V-4.64c.128-.208.128-.224.128-.272,0-.112-.144-.128-.224-.128l-1.248-.032a4.271,4.271,0,0,1,.144,1.008v3.28C25.008.448,25.424.8,26.7.8Zm4.512-13.52v3.5H46.56v-3.5Zm7.984.576v2.352H38.592v-2.352Zm-4,0v2.352H34.64v-2.352Zm8,0v2.352H42.544v-2.352Zm-10.8,4.032v6.64H45.424v-6.64Zm9.6,2.576V-4.1h-8.48v-1.44Zm0-2v1.424h-8.48V-7.536Zm0,4.016v1.472h-8.48V-3.52ZM33.216,1.312A17.38,17.38,0,0,0,37.44-.016c.576-.112.64-.128.64-.256,0-.048-.016-.064-.128-.176l-.928-.88A7.754,7.754,0,0,1,32.768.592ZM41.984-.1a15.785,15.785,0,0,0,4.448,1.472l.512-.7A9.418,9.418,0,0,1,42.752-1.1ZM60.576-8.352a3.5,3.5,0,0,1-.208,1.136A13.652,13.652,0,0,1,58.7-3.728a23.615,23.615,0,0,1-1.04-6.224h5.568v-.576h-5.6c-.032-1.056-.032-1.7-.032-2.208,0-.064.176-.368.176-.432,0-.144-.032-.144-.3-.144l-1.312-.016a11.279,11.279,0,0,1,.256,2.8h-6.3V-5.76c0,2.464-.176,5.056-1.76,6.736l.592.32a9.476,9.476,0,0,0,2.464-6.768v-1.3h2.64a18.623,18.623,0,0,1-.224,3.648c-.144.48-.3.736-.848.736a6.187,6.187,0,0,1-1.312-.192l.288.752h1.36c.816,0,1.472,0,1.76-1.344a25.55,25.55,0,0,0,.3-4.176H51.408V-9.952h5.04A25.4,25.4,0,0,0,57.84-2.576,9.339,9.339,0,0,1,53.376.512l.5.544a9.335,9.335,0,0,0,4.4-2.736c.672,1.248,1.9,2.96,3.008,2.96.544,0,1.28-.208,2.256-2.8a2.491,2.491,0,0,1-1.024-.848c-.272.944-.688,2.24-1.28,2.24-.432,0-1.36-.992-2.1-2.544A21.88,21.88,0,0,0,61.808-7.2c.352-.256.4-.288.4-.368,0-.112-.064-.128-.256-.208Zm1.36-3.344a13.661,13.661,0,0,0-2.64-1.632l-.368.512a13.806,13.806,0,0,1,2.192,2ZM72.624-10.48v-2.512a1.381,1.381,0,0,0,.128-.384c0-.1-.08-.112-.256-.128l-1.344-.064a3.28,3.28,0,0,1,.144.9v2.192H65.488v.56H78.512v-.56Zm.432,10.4A62.8,62.8,0,0,0,76.08-7.92c.224-.16.272-.192.272-.3s-.064-.128-.288-.192l-1.376-.368a39.455,39.455,0,0,1-2.4,8.7H64.7V.5h14.56V-.08ZM67.632-7.936a20.37,20.37,0,0,1,1.632,6.752l1.424-.576a22.692,22.692,0,0,0-2.448-6.5Z" transform="translate(148 7773.923)" fill="#fff"/>
    </g>
    <g id="Group_208" data-name="Group 208" transform="translate(0 84)">
      <path id="Path_272-2" data-name="Path 272" d="M0,0H335V50L167.331,74,0,50Z" transform="translate(20 7735)" fill="#e56b00"/>
      <path id="Path_274" data-name="Path 274" d="M8-13.7A7.6,7.6,0,0,0,.384-6.08,7.614,7.614,0,0,0,8,1.536,7.624,7.624,0,0,0,15.616-6.08,7.614,7.614,0,0,0,8-13.7Zm0,.5a7.125,7.125,0,0,1,7.12,7.12A7.122,7.122,0,0,1,8,1.024,7.112,7.112,0,0,1,.88-6.08,7.125,7.125,0,0,1,8-13.2ZM6.176-7.872c.032-1.184.08-3.424,2-3.424,1.376,0,1.744,1.2,1.744,2.464,0,1.7-.464,2.176-1.872,3.3-1.424,1.12-2.784,2.208-3.12,4.8H11.04V-1.3H6.352A4.856,4.856,0,0,1,8.528-4.928C10.4-6.24,11.12-6.736,11.12-8.688c0-1.872-.816-3.168-2.864-3.168-2.864,0-3.152,2.48-3.312,3.76ZM30.448-1.12a5.9,5.9,0,0,1-3.776-4.192h4.192v-.576H26.208a17.428,17.428,0,0,0,.192-2.9h3.728V-9.36H21.344v.576h3.792a21.321,21.321,0,0,1-.144,2.9H20.48v.576H24.9A5.782,5.782,0,0,1,21.1-1.088l.48.56A7.02,7.02,0,0,0,25.728-4.32,7.293,7.293,0,0,0,29.952-.56Zm-10.08-9.024a20.028,20.028,0,0,0-2.928-3.2l-.5.48A11.484,11.484,0,0,1,19.28-9.12Zm-3.7,3.68v.576H18.5v4.96A9.962,9.962,0,0,1,16.48.56l.528.7c.048.064.1.128.192.128s.112-.032.24-.352C18.1.464,18.464.1,19.184-.64,19.9.432,20.7.928,22.816.928h8.432l.3-.8c-.736.064-2.976.224-4.208.224h-3.92c-1.76,0-3.648-.1-3.648-2.656v-4.16Zm8.336-4.272a13.464,13.464,0,0,0-2.512-2.72l-.544.448A9.213,9.213,0,0,1,23.92-9.952Zm3.408-2.816A13.647,13.647,0,0,1,26.4-10.48l.576.4a28.055,28.055,0,0,0,2.3-2.24c.1-.016.352-.08.352-.192,0-.1-.08-.16-.176-.24ZM40.592-7.488h2.864v-.56H36.512v.56h2.832v2.4h-4.8v.576h4.8v4.48H32.976V.544H46.864V-.032H40.592v-4.48h4.784v-.576H40.592Zm-1.344-5.888a12.694,12.694,0,0,1-6.96,6.352l.512.464a14.574,14.574,0,0,0,7.136-5.248A16.282,16.282,0,0,0,47.008-6.5l.464-.576a12.048,12.048,0,0,1-6.72-6.3ZM38.4-1.12a13.955,13.955,0,0,0-2.464-2.656l-.528.48A14.506,14.506,0,0,1,37.3-.4Zm4.816-2.768A10.2,10.2,0,0,1,41.344-.816l.608.432a23.989,23.989,0,0,0,2.24-2.352c.256-.128.368-.192.368-.272s-.128-.144-.176-.176Z" transform="translate(164 7773.923)" fill="#fff"/>
    </g>
    <g id="Group_212" data-name="Group 212" transform="translate(0 420)">
      <path id="Path_272-3" data-name="Path 272" d="M0,0H335V50L167.331,74,0,50Z" transform="translate(20 7735)" fill="#482200"/>
      <path id="Path_278" data-name="Path 278" d="M8-13.7A7.6,7.6,0,0,0,.384-6.08,7.614,7.614,0,0,0,8,1.536,7.624,7.624,0,0,0,15.616-6.08,7.614,7.614,0,0,0,8-13.7Zm0,.5a7.125,7.125,0,0,1,7.12,7.12A7.122,7.122,0,0,1,8,1.024,7.112,7.112,0,0,1,.88-6.08,7.125,7.125,0,0,1,8-13.2ZM6.176-7.872c.032-1.184.08-3.424,2-3.424,1.376,0,1.744,1.2,1.744,2.464,0,1.7-.464,2.176-1.872,3.3-1.424,1.12-2.784,2.208-3.12,4.8H11.04V-1.3H6.352A4.856,4.856,0,0,1,8.528-4.928C10.4-6.24,11.12-6.736,11.12-8.688c0-1.872-.816-3.168-2.864-3.168-2.864,0-3.152,2.48-3.312,3.76ZM30.448-1.12a5.9,5.9,0,0,1-3.776-4.192h4.192v-.576H26.208a17.428,17.428,0,0,0,.192-2.9h3.728V-9.36H21.344v.576h3.792a21.321,21.321,0,0,1-.144,2.9H20.48v.576H24.9A5.782,5.782,0,0,1,21.1-1.088l.48.56A7.02,7.02,0,0,0,25.728-4.32,7.293,7.293,0,0,0,29.952-.56Zm-10.08-9.024a20.028,20.028,0,0,0-2.928-3.2l-.5.48A11.484,11.484,0,0,1,19.28-9.12Zm-3.7,3.68v.576H18.5v4.96A9.962,9.962,0,0,1,16.48.56l.528.7c.048.064.1.128.192.128s.112-.032.24-.352C18.1.464,18.464.1,19.184-.64,19.9.432,20.7.928,22.816.928h8.432l.3-.8c-.736.064-2.976.224-4.208.224h-3.92c-1.76,0-3.648-.1-3.648-2.656v-4.16Zm8.336-4.272a13.464,13.464,0,0,0-2.512-2.72l-.544.448A9.213,9.213,0,0,1,23.92-9.952Zm3.408-2.816A13.647,13.647,0,0,1,26.4-10.48l.576.4a28.055,28.055,0,0,0,2.3-2.24c.1-.016.352-.08.352-.192,0-.1-.08-.16-.176-.24ZM40.592-7.488h2.864v-.56H36.512v.56h2.832v2.4h-4.8v.576h4.8v4.48H32.976V.544H46.864V-.032H40.592v-4.48h4.784v-.576H40.592Zm-1.344-5.888a12.694,12.694,0,0,1-6.96,6.352l.512.464a14.574,14.574,0,0,0,7.136-5.248A16.282,16.282,0,0,0,47.008-6.5l.464-.576a12.048,12.048,0,0,1-6.72-6.3ZM38.4-1.12a13.955,13.955,0,0,0-2.464-2.656l-.528.48A14.506,14.506,0,0,1,37.3-.4Zm4.816-2.768A10.2,10.2,0,0,1,41.344-.816l.608.432a23.989,23.989,0,0,0,2.24-2.352c.256-.128.368-.192.368-.272s-.128-.144-.176-.176Z" transform="translate(164 7773.923)" fill="#fff"/>
    </g>
    <g id="Group_209" data-name="Group 209" transform="translate(0 168)">
      <path id="Path_272-4" data-name="Path 272" d="M0,0H335V50L167.331,74,0,50Z" transform="translate(20 7735)" fill="#cf6100"/>
      <path id="Path_275" data-name="Path 275" d="M8-13.7A7.6,7.6,0,0,0,.384-6.08,7.614,7.614,0,0,0,8,1.536,7.624,7.624,0,0,0,15.616-6.08,7.614,7.614,0,0,0,8-13.7Zm0,.5a7.125,7.125,0,0,1,7.12,7.12A7.122,7.122,0,0,1,8,1.024,7.112,7.112,0,0,1,.88-6.08,7.125,7.125,0,0,1,8-13.2ZM7.136-6.784v.56h.928c.784,0,1.776.192,1.776,2.288C9.84-2.048,9.392-.96,8.048-.96c-1.9,0-2.032-2.4-2.064-3.04L4.9-3.232C5.44-.88,6.752-.416,7.984-.416c1.84,0,3.04-1.088,3.04-3.232,0-2.56-1.568-2.784-2.144-2.88a2.169,2.169,0,0,0,1.872-2.48A2.457,2.457,0,0,0,8.24-11.744a2.719,2.719,0,0,0-2.7,1.808l.928.832c.1-.56.512-2.08,1.744-2.08S9.552-9.728,9.552-9.12c0,1.84-.5,2.336-1.664,2.336Zm20.432-5.44c0-.08.272-.336.272-.416s-.064-.144-.336-.144l-1.232-.032c.032.368.08.976.08,1.344v2.288H21.984v-3.072c0-.08.288-.336.288-.4,0-.128-.256-.144-.32-.144l-1.344-.064a8.32,8.32,0,0,1,.16,1.712v1.968h-1.04c-.384,0-1.536-.048-2.464-.144V-8.32c1.04-.1,2.24-.128,2.464-.128h1.04v1.216c0,.72-.064,1.872-.176,3.056h1.424c-.016-.944-.032-2-.032-2.96V-8.448h4.368a28.183,28.183,0,0,1-.288,4.272C25.52-.8,22.624-.5,21.248-.352l.336.736c5.1-1.072,5.92-2.464,5.984-8.832h.576c.64,0,1.856.08,2.48.128V-9.328c-.672.064-1.9.144-2.48.144h-.576ZM41.44.752c-.048-.448-.112-1.6-.112-2.08V-8.7a23.618,23.618,0,0,0,3.44-3.2,2.175,2.175,0,0,1,.432-.224.127.127,0,0,0,.08-.128c0-.08-.128-.176-.176-.208l-1.1-.72A17.36,17.36,0,0,1,33.2-5.84l.272.688a19.781,19.781,0,0,0,6.7-2.736v6.624c0,.336-.032,1.136-.08,2.016Zm12.4-3.7c0,1.424-.032,2.4-.08,3.232h1.36c-.048-1.328-.048-2.752-.048-3.232V-7.28a11.52,11.52,0,0,1,5.216,3.264l1.056-.944a16.977,16.977,0,0,0-6.272-3.024v-3.728a.785.785,0,0,1,.144-.5.357.357,0,0,0,.08-.176c0-.1-.16-.144-.288-.16l-1.264-.112a12.979,12.979,0,0,1,.1,1.76ZM68.5-8.8h1.648v-.576H68.5v-2.656c.224-.032,1.408-.256,1.488-.256.064,0,.384.032.448.032.048,0,.192,0,.192-.08s-.144-.192-.192-.24l-.976-.88c-1.136,1.024-4.64,1.168-4.72,1.184l.384.544c.384-.016.96-.032,2.176-.16v2.512h-2.56V-8.8h2.416a10.508,10.508,0,0,1-2.608,6.128l.432.352A8.6,8.6,0,0,0,67.3-5.6V1.184h1.2V-6.272a9.927,9.927,0,0,0,1.328,1.728l.432-.48A7.957,7.957,0,0,1,68.5-8.56Zm8.368-2.784a6.684,6.684,0,0,1-2.112,2.528,13.661,13.661,0,0,0-2.048-1.52l-.416.432A6.882,6.882,0,0,1,73.76-8.32a15.153,15.153,0,0,1-3.552,1.744l.608.544a21.081,21.081,0,0,0,4.608-2.416,13,13,0,0,0,3.648-3.712H74.016c.224-.208.3-.272.5-.464.384-.16.544-.224.544-.384,0-.1-.1-.128-.288-.192l-1.28-.464a2.166,2.166,0,0,1-.352.816,11.2,11.2,0,0,1-3.152,2.7l.576.336a18.022,18.022,0,0,0,2.752-1.776Zm-2.1,6.112a17.761,17.761,0,0,0,1.312-1.44c.272-.1.4-.144.4-.256,0-.1-.16-.176-.24-.208l-1.184-.592c-.224.992-1.984,3.616-5.3,5.232l.544.448A14.085,14.085,0,0,0,74.16-4.9H77.9a6.345,6.345,0,0,1-2.1,3.184,10.752,10.752,0,0,0-2.4-2l-.48.48A8.681,8.681,0,0,1,74.72-.944,13.836,13.836,0,0,1,69.376.544l.592.64c5.568-.88,8.208-2.7,9.7-6.656ZM80.96-4.448a14.223,14.223,0,0,0,2.272-1.84V1.2h1.184V-7.488c.448-.48.848-.912,1.408-1.584.192-.112.32-.192.32-.32,0-.1-.064-.144-.192-.224l-1.056-.64c-.368,1.2-2.64,3.9-4.464,5.376ZM84.416-13.6A11.894,11.894,0,0,1,80.48-9.152l.48.448a18.423,18.423,0,0,0,4.4-3.664c.368-.16.416-.176.416-.3,0-.064-.032-.112-.176-.208Zm7.936,6.32H95.3v-.576H85.68v.576h5.392V-.256c0,.528,0,.88-.72.88a6.96,6.96,0,0,1-1.824-.24l.272.752h1.952c1.568,0,1.6-.464,1.6-1.344Zm2.288-5.088h-8.1v.576h8.1Zm2.848-.336V1.216H98.7V-7.648h4.56V-12.7ZM98.7-10.512v-1.632h3.36v1.632Zm3.36.592v1.7H98.7v-1.7ZM104.72-12.7v5.056h4.56V-.16c0,.432,0,.768-.512.768A9.406,9.406,0,0,1,107.3.448l.288.736h1.472c1.008,0,1.44-.256,1.44-1.28V-12.7Zm1.184,2.192v-1.632h3.376v1.632Zm3.376.592v1.7H105.9v-1.7Zm-3.008,4.048h1.9v-.592H99.952v.592h2.08v2.224H99.52v.576H102A4.007,4.007,0,0,1,99.872.416l.432.416c2.56-1.44,2.768-2.8,2.9-3.9h1.872v3.9h1.2v-3.9h2.288v-.576h-2.288Zm-1.2,2.224h-1.824c.016-.24.016-.32.016-.864v-1.36h1.808Zm22.512-3.328a13.392,13.392,0,0,0-3.168-4.368l-.592.624a10.41,10.41,0,0,1,1.616,2.112c-1.264.192-1.616.224-4.752.48,1.216-1.824,1.36-2.08,2.72-4.464.064-.064.272-.256.272-.352s-.144-.128-.272-.176l-1.328-.432a17.558,17.558,0,0,1-2.32,5.472A6.093,6.093,0,0,1,118.3-8.1c.032-.528.032-1.344.032-2.032H115.9c.144-.88.368-2.352.4-2.64a.852.852,0,0,0,.176-.4c0-.112-.032-.128-.256-.144l-1.264-.128a5.424,5.424,0,0,1,.032.592,16.649,16.649,0,0,1-.3,2.72H112.72v.576h1.872a28.615,28.615,0,0,1-1.872,6.128,8.587,8.587,0,0,1,2.944,1.6A6.183,6.183,0,0,1,112.7.64l.592.672a8.576,8.576,0,0,0,3.12-2.5A7.756,7.756,0,0,1,117.792.48l.944-1.024A7.068,7.068,0,0,0,117.008-2.1a13.391,13.391,0,0,0,1.3-5.984l.368.96c.1.256.144.3.224.3.112,0,.16-.112.3-.384.928-.112,5.552-.608,6.592-.768a16.432,16.432,0,0,1,.8,1.872Zm-10.5-2.576c-.032,3.5-.224,5.424-.96,6.912a17.54,17.54,0,0,0-2.016-.992,32.028,32.028,0,0,0,1.7-5.92Zm9.36,10.768V-5.616H119.2V1.216h1.216V.432H125.2v.784ZM125.2-.144h-4.784v-4.9H125.2ZM143.392.3a11.514,11.514,0,0,1-3.616-4.672,32.541,32.541,0,0,0,2.64-2.048c.176,0,.5-.032.5-.224,0-.064-.016-.08-.16-.16l-1.1-.656a14.268,14.268,0,0,1-2.16,2.32,13.273,13.273,0,0,1-.7-4.144h4.432v-.576h-4.672V-12.72c.176-.368.192-.416.192-.464,0-.1-.064-.1-.192-.1l-1.36-.048a7.2,7.2,0,0,1,.1,1.12v2.352H132.8v.576h4.08a13.33,13.33,0,0,1-4.816,4.96l.56.48a16.075,16.075,0,0,0,2.4-1.648V-.624a15.039,15.039,0,0,1-2.336.56l.5.96c.032.064.128.192.192.192.1,0,.16-.128.288-.368.864-.32,4.736-1.728,5.5-2.032v-.72a28.769,28.769,0,0,1-2.9,1.024V-6.592a16.307,16.307,0,0,0,1.408-1.472,13.792,13.792,0,0,0,5.152,8.9ZM131.68-9.808a28.685,28.685,0,0,0,1.408-2.656c.272-.192.32-.24.32-.368,0-.1-.1-.144-.176-.176l-1.312-.48c-.128,1.536-1.984,5.312-3.744,7.216l.7.224a17.055,17.055,0,0,0,1.52-1.84V1.264h1.28Zm23.024-.336a16.691,16.691,0,0,0,.912-1.952h3.616v-.56h-7.5v.56h2.528a19.153,19.153,0,0,1-.5,1.952H152.4v8.08h6.128v-8.08Zm2.64,3.072v1.9H153.6v-1.9ZM153.6-7.648v-1.9h3.744v1.9Zm3.744,3.056V-2.64H153.6V-4.592ZM151.728-1.84a7.712,7.712,0,0,1-2.336-3.136h1.936V-9.44H148.9V-11.1h2.736v-.576H148.9v-1.184c.128-.1.272-.208.272-.336,0-.1-.064-.1-.352-.128l-1.184-.112a3.331,3.331,0,0,1,.192,1.056v.7H144.7v.576h3.12V-9.44h-2.416v4.464h1.968a11.743,11.743,0,0,1-3.1,4.528l.544.432a12.024,12.024,0,0,0,3.008-3.808V1.184H148.9v-4.96a12.512,12.512,0,0,0,2.432,2.448Zm-1.5-7.024v3.312H148.9V-8.864ZM146.5-5.552V-8.864h1.328v3.312Zm5.056,6.736A11.258,11.258,0,0,0,154.48-.5c.448-.112.48-.112.48-.224,0-.032-.016-.08-.176-.208l-.992-.8A3.1,3.1,0,0,1,152.976-.7a11.014,11.014,0,0,1-1.9,1.36Zm4.3-1.968a12.61,12.61,0,0,0,3.312,2.048l.368-.56a8.618,8.618,0,0,1-2.784-2.336Z" transform="translate(108 7773.923)" fill="#fff"/>
    </g>
    <g id="Group_210" data-name="Group 210" transform="translate(0 252)">
      <path id="Path_272-5" data-name="Path 272" d="M0,0H335V50L167.331,74,0,50Z" transform="translate(20 7735)" fill="#a84e00"/>
      <path id="Path_276" data-name="Path 276" d="M8-13.7A7.6,7.6,0,0,0,.384-6.08,7.614,7.614,0,0,0,8,1.536,7.624,7.624,0,0,0,15.616-6.08,7.614,7.614,0,0,0,8-13.7Zm0,.5a7.125,7.125,0,0,1,7.12,7.12A7.122,7.122,0,0,1,8,1.024,7.112,7.112,0,0,1,.88-6.08,7.125,7.125,0,0,1,8-13.2Zm.288,1.68L4.464-3.84v.528H8.5V-.64h1.04V-3.312H10.72v-.56H9.536V-11.52ZM8.5-3.872H5.12L8.5-10.624Zm19.072-8.352c0-.08.272-.336.272-.416s-.064-.144-.336-.144l-1.232-.032c.032.368.08.976.08,1.344v2.288H21.984v-3.072c0-.08.288-.336.288-.4,0-.128-.256-.144-.32-.144l-1.344-.064a8.32,8.32,0,0,1,.16,1.712v1.968h-1.04c-.384,0-1.536-.048-2.464-.144V-8.32c1.04-.1,2.24-.128,2.464-.128h1.04v1.216c0,.72-.064,1.872-.176,3.056h1.424c-.016-.944-.032-2-.032-2.96V-8.448h4.368a28.183,28.183,0,0,1-.288,4.272C25.52-.8,22.624-.5,21.248-.352l.336.736c5.1-1.072,5.92-2.464,5.984-8.832h.576c.64,0,1.856.08,2.48.128V-9.328c-.672.064-1.9.144-2.48.144h-.576ZM41.44.752c-.048-.448-.112-1.6-.112-2.08V-8.7a23.618,23.618,0,0,0,3.44-3.2,2.175,2.175,0,0,1,.432-.224.127.127,0,0,0,.08-.128c0-.08-.128-.176-.176-.208l-1.1-.72A17.36,17.36,0,0,1,33.2-5.84l.272.688a19.781,19.781,0,0,0,6.7-2.736v6.624c0,.336-.032,1.136-.08,2.016Zm12.4-3.7c0,1.424-.032,2.4-.08,3.232h1.36c-.048-1.328-.048-2.752-.048-3.232V-7.28a11.52,11.52,0,0,1,5.216,3.264l1.056-.944a16.977,16.977,0,0,0-6.272-3.024v-3.728a.785.785,0,0,1,.144-.5.357.357,0,0,0,.08-.176c0-.1-.16-.144-.288-.16l-1.264-.112a12.979,12.979,0,0,1,.1,1.76ZM68.5-8.8h1.648v-.576H68.5v-2.656c.224-.032,1.408-.256,1.488-.256.064,0,.384.032.448.032.048,0,.192,0,.192-.08s-.144-.192-.192-.24l-.976-.88c-1.136,1.024-4.64,1.168-4.72,1.184l.384.544c.384-.016.96-.032,2.176-.16v2.512h-2.56V-8.8h2.416a10.508,10.508,0,0,1-2.608,6.128l.432.352A8.6,8.6,0,0,0,67.3-5.6V1.184h1.2V-6.272a9.927,9.927,0,0,0,1.328,1.728l.432-.48A7.957,7.957,0,0,1,68.5-8.56Zm8.368-2.784a6.684,6.684,0,0,1-2.112,2.528,13.661,13.661,0,0,0-2.048-1.52l-.416.432A6.882,6.882,0,0,1,73.76-8.32a15.153,15.153,0,0,1-3.552,1.744l.608.544a21.081,21.081,0,0,0,4.608-2.416,13,13,0,0,0,3.648-3.712H74.016c.224-.208.3-.272.5-.464.384-.16.544-.224.544-.384,0-.1-.1-.128-.288-.192l-1.28-.464a2.166,2.166,0,0,1-.352.816,11.2,11.2,0,0,1-3.152,2.7l.576.336a18.022,18.022,0,0,0,2.752-1.776Zm-2.1,6.112a17.761,17.761,0,0,0,1.312-1.44c.272-.1.4-.144.4-.256,0-.1-.16-.176-.24-.208l-1.184-.592c-.224.992-1.984,3.616-5.3,5.232l.544.448A14.085,14.085,0,0,0,74.16-4.9H77.9a6.345,6.345,0,0,1-2.1,3.184,10.752,10.752,0,0,0-2.4-2l-.48.48A8.681,8.681,0,0,1,74.72-.944,13.836,13.836,0,0,1,69.376.544l.592.64c5.568-.88,8.208-2.7,9.7-6.656ZM80.96-4.448a14.223,14.223,0,0,0,2.272-1.84V1.2h1.184V-7.488c.448-.48.848-.912,1.408-1.584.192-.112.32-.192.32-.32,0-.1-.064-.144-.192-.224l-1.056-.64c-.368,1.2-2.64,3.9-4.464,5.376ZM84.416-13.6A11.894,11.894,0,0,1,80.48-9.152l.48.448a18.423,18.423,0,0,0,4.4-3.664c.368-.16.416-.176.416-.3,0-.064-.032-.112-.176-.208Zm7.936,6.32H95.3v-.576H85.68v.576h5.392V-.256c0,.528,0,.88-.72.88a6.96,6.96,0,0,1-1.824-.24l.272.752h1.952c1.568,0,1.6-.464,1.6-1.344Zm2.288-5.088h-8.1v.576h8.1Z" transform="translate(140 7773.923)" fill="#fff"/>
    </g>
    <g id="Group_211" data-name="Group 211" transform="translate(0 336)">
      <path id="Path_272-6" data-name="Path 272" d="M0,0H335V50L167.331,74,0,50Z" transform="translate(20 7735)" fill="#843e00"/>
      <path id="Path_277" data-name="Path 277" d="M8-13.7A7.6,7.6,0,0,0,.384-6.08,7.614,7.614,0,0,0,8,1.536,7.624,7.624,0,0,0,15.616-6.08,7.614,7.614,0,0,0,8-13.7Zm0,.5a7.125,7.125,0,0,1,7.12,7.12A7.122,7.122,0,0,1,8,1.024,7.112,7.112,0,0,1,.88-6.08,7.125,7.125,0,0,1,8-13.2Zm2.64,2.352v-.56H5.5L5.392-5.456l.816.144c.08-.384.432-1.9,1.968-1.9,1.36,0,1.7,1.392,1.7,2.992,0,1.92-.368,3.36-1.84,3.36S6.08-2.288,6-3.52l-1.12.592C5.456-1.28,6.224-.288,7.968-.288c2.848,0,3.088-2.752,3.088-3.808,0-.528,0-3.76-2.768-3.76a2.306,2.306,0,0,0-1.824.848l.08-3.84Zm16.928-1.376c0-.08.272-.336.272-.416s-.064-.144-.336-.144l-1.232-.032c.032.368.08.976.08,1.344v2.288H21.984v-3.072c0-.08.288-.336.288-.4,0-.128-.256-.144-.32-.144l-1.344-.064a8.32,8.32,0,0,1,.16,1.712v1.968h-1.04c-.384,0-1.536-.048-2.464-.144V-8.32c1.04-.1,2.24-.128,2.464-.128h1.04v1.216c0,.72-.064,1.872-.176,3.056h1.424c-.016-.944-.032-2-.032-2.96V-8.448h4.368a28.183,28.183,0,0,1-.288,4.272C25.52-.8,22.624-.5,21.248-.352l.336.736c5.1-1.072,5.92-2.464,5.984-8.832h.576c.64,0,1.856.08,2.48.128V-9.328c-.672.064-1.9.144-2.48.144h-.576ZM41.44.752c-.048-.448-.112-1.6-.112-2.08V-8.7a23.618,23.618,0,0,0,3.44-3.2,2.175,2.175,0,0,1,.432-.224.127.127,0,0,0,.08-.128c0-.08-.128-.176-.176-.208l-1.1-.72A17.36,17.36,0,0,1,33.2-5.84l.272.688a19.781,19.781,0,0,0,6.7-2.736v6.624c0,.336-.032,1.136-.08,2.016Zm12.4-3.7c0,1.424-.032,2.4-.08,3.232h1.36c-.048-1.328-.048-2.752-.048-3.232V-7.28a11.52,11.52,0,0,1,5.216,3.264l1.056-.944a16.977,16.977,0,0,0-6.272-3.024v-3.728a.785.785,0,0,1,.144-.5.357.357,0,0,0,.08-.176c0-.1-.16-.144-.288-.16l-1.264-.112a12.979,12.979,0,0,1,.1,1.76ZM68.5-8.8h1.648v-.576H68.5v-2.656c.224-.032,1.408-.256,1.488-.256.064,0,.384.032.448.032.048,0,.192,0,.192-.08s-.144-.192-.192-.24l-.976-.88c-1.136,1.024-4.64,1.168-4.72,1.184l.384.544c.384-.016.96-.032,2.176-.16v2.512h-2.56V-8.8h2.416a10.508,10.508,0,0,1-2.608,6.128l.432.352A8.6,8.6,0,0,0,67.3-5.6V1.184h1.2V-6.272a9.927,9.927,0,0,0,1.328,1.728l.432-.48A7.957,7.957,0,0,1,68.5-8.56Zm8.368-2.784a6.684,6.684,0,0,1-2.112,2.528,13.661,13.661,0,0,0-2.048-1.52l-.416.432A6.882,6.882,0,0,1,73.76-8.32a15.153,15.153,0,0,1-3.552,1.744l.608.544a21.081,21.081,0,0,0,4.608-2.416,13,13,0,0,0,3.648-3.712H74.016c.224-.208.3-.272.5-.464.384-.16.544-.224.544-.384,0-.1-.1-.128-.288-.192l-1.28-.464a2.166,2.166,0,0,1-.352.816,11.2,11.2,0,0,1-3.152,2.7l.576.336a18.022,18.022,0,0,0,2.752-1.776Zm-2.1,6.112a17.761,17.761,0,0,0,1.312-1.44c.272-.1.4-.144.4-.256,0-.1-.16-.176-.24-.208l-1.184-.592c-.224.992-1.984,3.616-5.3,5.232l.544.448A14.085,14.085,0,0,0,74.16-4.9H77.9a6.345,6.345,0,0,1-2.1,3.184,10.752,10.752,0,0,0-2.4-2l-.48.48A8.681,8.681,0,0,1,74.72-.944,13.836,13.836,0,0,1,69.376.544l.592.64c5.568-.88,8.208-2.7,9.7-6.656ZM80.96-4.448a14.223,14.223,0,0,0,2.272-1.84V1.2h1.184V-7.488c.448-.48.848-.912,1.408-1.584.192-.112.32-.192.32-.32,0-.1-.064-.144-.192-.224l-1.056-.64c-.368,1.2-2.64,3.9-4.464,5.376ZM84.416-13.6A11.894,11.894,0,0,1,80.48-9.152l.48.448a18.423,18.423,0,0,0,4.4-3.664c.368-.16.416-.176.416-.3,0-.064-.032-.112-.176-.208Zm7.936,6.32H95.3v-.576H85.68v.576h5.392V-.256c0,.528,0,.88-.72.88a6.96,6.96,0,0,1-1.824-.24l.272.752h1.952c1.568,0,1.6-.464,1.6-1.344Zm2.288-5.088h-8.1v.576h8.1Zm15.344.768v-1.36a.7.7,0,0,0,.1-.272c0-.1-.048-.112-.128-.112l-1.36-.08a6.732,6.732,0,0,1,.1,1.008v.816H102.4v3.792h1.3v-3.216h11.312v3.216h1.248V-11.6Zm1.376,6.9h5.216V-5.28H102.048V-4.7h4.816c-.1,2.928-.992,4.96-5.136,5.3l.432.624c4.512-.384,5.872-2.8,5.984-5.92h1.968V-.368c0,1.248.56,1.248,1.6,1.248h2.7c.96,0,1.824,0,2.4-2.48a3.662,3.662,0,0,1-1.168-.656C115.248.3,114.8.3,113.9.3H112.08c-.528,0-.72,0-.72-.528ZM104.928-8.56v.576h8.88V-8.56ZM118.064-12.7v.592h12A29.8,29.8,0,0,1,126-8.768l-1.344-.208V-.288c0,.592,0,.8-.688.8a12.8,12.8,0,0,1-1.9-.192l.224.848H124.4c1.216,0,1.488-.144,1.488-1.488V-7.472c5.1-3.648,5.68-4.064,6.432-4.64V-12.7ZM148.864.48A8.758,8.758,0,0,1,146.5-1.6a12.408,12.408,0,0,0,1.728-5.2H143.28v-5.312h3.456c-.064,3.6-.384,3.6-.912,3.6A7.239,7.239,0,0,1,144.4-8.72l.32.768h1.248c1.344,0,2.048,0,2-4.736h-5.92V1.232h1.232V-6.24h3.552a11.005,11.005,0,0,1-.88,3.824,12.513,12.513,0,0,1-1.024-2.96l-1.248.256a11.211,11.211,0,0,0,1.792,3.552,7.208,7.208,0,0,1-2.16,2.1l.544.448a8.839,8.839,0,0,0,2.16-1.9,10.4,10.4,0,0,0,2.3,1.872ZM138.336-11.5v-1.184c.192-.368.208-.4.208-.5,0-.112-.08-.112-.32-.128l-1.264-.08a5.119,5.119,0,0,1,.1,1.008v.88h-2.672v.576h2.672v2.272h-3.04v.576h7.312v-.576h-2.992v-2.272h2.688V-11.5Zm0,7.008h2.992v-.576h-7.312V-4.5h3.04V-2.24h-2.912v.576h2.912v2.9h1.28v-2.9h2.688V-2.24h-2.688Zm-3.488-3.168a12.014,12.014,0,0,1,1.04,2.544l1.072-.624a16.241,16.241,0,0,0-1.6-2.208Zm4.736-.288a6.574,6.574,0,0,1-.9,2.448l.544.272a18.9,18.9,0,0,0,1.36-1.616c.144-.1.368-.24.368-.384,0-.064,0-.08-.24-.192Zm13.76-2.992c.224-.32.4-.576.8-1.184.1-.064.336-.192.336-.368,0-.064-.08-.112-.208-.16l-1.5-.64a14.036,14.036,0,0,1-2.416,4.944l.7.352a20.082,20.082,0,0,0,1.888-2.384h3.728v3.152H150v.576h14.576v-.576h-6.624v-3.152h5.5v-.56h-5.5v-1.824c.128-.192.176-.272.176-.352,0-.176-.112-.176-.3-.192l-1.248-.1a4.876,4.876,0,0,1,.1.944v1.52Zm8,11.472v.7h1.328v-5.76H151.84v5.76h1.36v-.7ZM153.2-.048v-3.9h8.144v3.9Z" transform="translate(105 7773.923)" fill="#fff"/>
    </g>
  </g>
</svg>
