<svg xmlns="http://www.w3.org/2000/svg" width="23.999" height="24" viewBox="0 0 23.999 24">
  <g id="Group_66" data-name="Group 66" transform="translate(-1139.164 -8278.076)">
    <path id="Path_241" data-name="Path 241" d="M4.04,0A4.04,4.04,0,0,1,8.08,4.04c0,2.231-4.04,6.849-4.04,6.849S0,6.271,0,4.04A4.04,4.04,0,0,1,4.04,0Z" transform="matrix(0.921, 0.391, -0.391, 0.921, 1151.868, 8278.076)" fill="#1e1e1e"/>
    <path id="Path_244" data-name="Path 244" d="M4.04,0A4.04,4.04,0,0,1,8.08,4.04c0,2.231-4.04,6.849-4.04,6.849S0,6.271,0,4.04A4.04,4.04,0,0,1,4.04,0Z" transform="matrix(-0.391, 0.921, -0.921, -0.391, 1163.163, 8290.78)" fill="#1e1e1e"/>
    <path id="Path_242" data-name="Path 242" d="M4.04,10.889a4.04,4.04,0,0,0,4.04-4.04C8.08,4.618,4.04,0,4.04,0S0,4.618,0,6.849A4.04,4.04,0,0,0,4.04,10.889Z" transform="matrix(0.921, 0.391, -0.391, 0.921, 1147.276, 8288.896)" fill="#1e1e1e"/>
    <path id="Path_243" data-name="Path 243" d="M4.04,10.889a4.04,4.04,0,0,0,4.04-4.04C8.08,4.618,4.04,0,4.04,0S0,4.618,0,6.849A4.04,4.04,0,0,0,4.04,10.889Z" transform="matrix(-0.391, 0.921, -0.921, -0.391, 1152.345, 8286.188)" fill="#1e1e1e"/>
  </g>
</svg>
