<svg xmlns="http://www.w3.org/2000/svg" width="19.324" height="17.893" viewBox="0 0 19.324 17.893">
  <path id="path7" d="M3.594,1.5A2.6,2.6,0,0,0,1,4.094v9.841A2.6,2.6,0,0,0,3.594,16.53H8.157v2.147H6.368v.716h8.589v-.716H13.167V16.53H17.73a2.6,2.6,0,0,0,2.594-2.594V4.094A2.6,2.6,0,0,0,17.73,1.5Zm0,.716H17.73a1.879,1.879,0,0,1,1.879,1.879v9.841a1.88,1.88,0,0,1-1.879,1.879H3.594a1.88,1.88,0,0,1-1.879-1.879V4.094A1.88,1.88,0,0,1,3.594,2.216ZM8.873,16.53h3.579v2.147H8.873Z" transform="translate(-1 -1.5)" fill="#1073e5"/>
</svg>
