<svg xmlns="http://www.w3.org/2000/svg" width="40" height="40" viewBox="0 0 40 40">
  <g id="Group_167" data-name="Group 167" transform="translate(-959 40)">
    <circle id="Ellipse_22" data-name="Ellipse 22" cx="20" cy="20" r="20" transform="translate(959 -40)" fill="#fff"/>
    <path id="Icon_awesome-bell" data-name="Icon awesome-bell" d="M13.179,30.124a3.765,3.765,0,0,0,3.764-3.766H9.416A3.765,3.765,0,0,0,13.179,30.124Zm12.673-8.808c-1.137-1.221-3.264-3.059-3.264-9.078a9.291,9.291,0,0,0-7.528-9.129V1.883a1.882,1.882,0,1,0-3.763,0V3.109A9.291,9.291,0,0,0,3.77,12.238c0,6.019-2.127,7.856-3.264,9.078A1.838,1.838,0,0,0,0,22.593a1.884,1.884,0,0,0,1.889,1.883H24.47a1.884,1.884,0,0,0,1.889-1.883,1.837,1.837,0,0,0-.507-1.277Z" transform="translate(966 -35)" fill="#b9b9b9"/>
  </g>
</svg>
