<svg xmlns="http://www.w3.org/2000/svg" width="93.085" height="29.89" viewBox="0 0 93.085 29.89">
  <path id="site-logo-sky" d="M9.445,1.464,4.116,11.313l.161-.081C8.557,9.053,15.661,5.9,21.231,5.662V5.582L12.028.738a1.855,1.855,0,0,0-2.583.727ZM3.713,11.959.241,18.337A1.814,1.814,0,0,0,.08,19.79a2.088,2.088,0,0,0,.888,1.13l6.781,3.552c7.266-4.279,11.464-8.477,10.9-11.141-.242-1.13-1.372-1.857-3.31-2.18a23.371,23.371,0,0,0-7.912.484,54.1,54.1,0,0,1,9.93-1.776c3.794-.161,6.135.484,6.62,1.938.646,1.938-1.857,4.925-6.943,8.315A63.427,63.427,0,0,1,8.557,24.8l-.081.081,9.768,5.086a1.9,1.9,0,0,0,2.583-.807l5.893-10.9-.081-.081a35.8,35.8,0,0,1-10.979,5.813c7.589-4.763,12.19-9.607,12.19-12.755v-.484A2.755,2.755,0,0,0,26.317,8.73C22.765,6.712,13.885,8,3.713,11.959Zm57.561,8.557-.565,5.732h-5.57l2.18-22.524h5.57l-1.13,12.029L67.813,9.78h4.44l-5.328,5.328,5.893,11.141H67.086L63.211,18.66ZM93.081,9.86l-7.75,17.034a6.524,6.524,0,0,1-3.068,2.826,13.946,13.946,0,0,1-4.6.646H74.19l.4-2.422H77.5c.4,0,1.372-.081,1.453-.888,0-.4-.081-.646-.081-.888L74.513,9.78h5.974L82.667,20.6,86.946,9.78h6.135ZM53.362,19.952c.323-3.31-2.18-5.893-5.167-6.7-1.292-.323-3.148-.807-3.148-.807a17.18,17.18,0,0,1-3.714-1.13A1.957,1.957,0,0,1,40.364,9.3c.161-1.453,1.776-2.26,4.037-2.26h9.93l.323-3.875H46.1a24.424,24.424,0,0,0-5.328.565,9.128,9.128,0,0,0-3.794,2.018,7.585,7.585,0,0,0-2.422,5.49c0,4.037,3.068,5.57,5.167,6.055s3.875.888,4.844,1.13a10.843,10.843,0,0,1,2.341.807,2.306,2.306,0,0,1,.727,2.1c-.161.969-1.615,2.018-4.037,2.018h-9.93l-.323,3.875H43.432a12.078,12.078,0,0,0,3.794-.646,9.654,9.654,0,0,0,3.714-1.938A5.8,5.8,0,0,0,53.362,19.952Z" transform="translate(0.004 -0.477)" fill="#fff"/>
</svg>
