<svg xmlns="http://www.w3.org/2000/svg" width="27.265" height="20.778" viewBox="0 0 27.265 20.778">
  <path id="Icon_awesome-sign-out-alt" data-name="Icon awesome-sign-out-alt" d="M26.887,15.806,17.8,24.9a1.3,1.3,0,0,1-2.218-.92V18.782H8.223a1.3,1.3,0,0,1-1.3-1.3V12.29a1.3,1.3,0,0,1,1.3-1.3h7.358V5.8a1.3,1.3,0,0,1,2.218-.92l9.089,9.089A1.309,1.309,0,0,1,26.887,15.806Zm-16.5,8.818V22.461a.651.651,0,0,0-.649-.649H5.194A1.729,1.729,0,0,1,3.462,20.08V9.693A1.729,1.729,0,0,1,5.194,7.962H9.738a.651.651,0,0,0,.649-.649V5.149A.651.651,0,0,0,9.738,4.5H5.194A5.2,5.2,0,0,0,0,9.693V20.08a5.2,5.2,0,0,0,5.194,5.194H9.738A.651.651,0,0,0,10.387,24.625Z" transform="translate(0 -4.499)" fill="#fff"/>
</svg>
