<svg xmlns="http://www.w3.org/2000/svg" width="115.441" height="115.441" viewBox="0 0 115.441 115.441">
  <path id="Icon_awesome-user-circle" data-name="Icon awesome-user-circle" d="M57.72.563a57.72,57.72,0,1,0,57.72,57.72A57.711,57.711,0,0,0,57.72.563Zm0,22.343A20.481,20.481,0,1,1,37.239,43.387,20.482,20.482,0,0,1,57.72,22.906Zm0,80.064A44.6,44.6,0,0,1,23.624,87.1,25.95,25.95,0,0,1,46.549,73.179a5.7,5.7,0,0,1,1.652.256,30.816,30.816,0,0,0,9.519,1.606,30.7,30.7,0,0,0,9.519-1.606,5.7,5.7,0,0,1,1.652-.256A25.95,25.95,0,0,1,91.817,87.1,44.6,44.6,0,0,1,57.72,102.97Z" transform="translate(0 -0.563)" fill="#fff"/>
</svg>
